<svg width="46" height="46" viewBox="0 0 46 46" fill="none" xmlns="http://www.w3.org/2000/svg">
<g id="heroicons-mini" clip-path="url(#clip0_2422_13888)">
<circle id="Ellipse 6" cx="23" cy="23" r="23" fill="white"/>
<path id="Subtract" fill-rule="evenodd" clip-rule="evenodd" d="M8.85786 37.1421C16.6683 44.9526 29.3316 44.9526 37.1421 37.1421C44.9526 29.3316 44.9526 16.6683 37.1421 8.85786C29.3316 1.04738 16.6683 1.04738 8.85786 8.85786C1.04738 16.6683 1.04738 29.3316 8.85786 37.1421ZM30.0711 18.5806C30.8033 17.8483 30.8033 16.6612 30.0711 15.9289C29.3388 15.1967 28.1517 15.1967 27.4194 15.9289L23 20.3483L18.5806 15.9289C17.8483 15.1967 16.6612 15.1967 15.9289 15.9289C15.1967 16.6612 15.1967 17.8483 15.9289 18.5806L20.3483 23L15.9289 27.4194C15.1967 28.1516 15.1967 29.3388 15.9289 30.0711C16.6612 30.8033 17.8483 30.8033 18.5806 30.0711L23 25.6517L27.4194 30.0711C28.1516 30.8033 29.3388 30.8033 30.0711 30.0711C30.8033 29.3388 30.8033 28.1516 30.0711 27.4194L25.6517 23L30.0711 18.5806Z" fill="#01378B"/>
</g>
<defs>
<clipPath id="clip0_2422_13888">
<rect width="46" height="46" fill="white"/>
</clipPath>
</defs>
</svg>
