<?xml version="1.0" encoding="UTF-8"?>
<svg id="_4" data-name="4" xmlns="http://www.w3.org/2000/svg" xmlns:xlink="http://www.w3.org/1999/xlink" viewBox="0 0 50 29.16">
  <defs>
    <style>
      .cls-1 {
        fill: #f7de29;
      }

      .cls-1, .cls-2, .cls-3 {
        stroke-width: 0px;
      }

      .cls-2 {
        fill: none;
      }

      .cls-4 {
        clip-path: url(#clippath-1);
      }

      .cls-3 {
        fill: #cb1d23;
      }

      .cls-5 {
        clip-path: url(#clippath);
      }
    </style>
    <clipPath id="clippath">
      <rect class="cls-2" x="-.13" y=".19" width="50" height="29" rx="5.09" ry="5.09"/>
    </clipPath>
    <clipPath id="clippath-1">
      <rect class="cls-2" x="-.13" y=".11" width="50" height="29.16"/>
    </clipPath>
  </defs>
  <g class="cls-5">
    <g id="CHINA">
      <g class="cls-4">
        <rect class="cls-3" x="-.13" y=".11" width="50" height="29.16"/>
        <polygon class="cls-1" points="4.68 10.66 5.62 7.75 3.15 5.94 6.21 5.94 7.16 3.03 8.11 5.94 11.17 5.95 8.7 7.75 9.63 10.66 7.16 8.86 4.68 10.66"/>
        <polygon class="cls-1" points="13.2 12.23 14.24 12.65 14.96 11.8 14.88 12.91 15.91 13.33 14.83 13.6 14.75 14.7 14.16 13.76 13.08 14.03 13.79 13.18 13.2 12.23"/>
        <polygon class="cls-1" points="18.79 6.64 17.7 6.45 17.17 7.43 17.02 6.33 15.92 6.13 16.92 5.65 16.77 4.54 17.54 5.34 18.54 4.85 18.02 5.84 18.79 6.64"/>
        <polygon class="cls-1" points="16.47 11.62 16.81 10.56 15.91 9.9 17.02 9.9 17.37 8.85 17.71 9.9 18.83 9.9 17.93 10.56 18.27 11.62 17.37 10.97 16.47 11.62"/>
        <polygon class="cls-1" points="13.26 1.96 14.27 2.43 15.03 1.61 14.9 2.72 15.9 3.2 14.81 3.4 14.68 4.51 14.13 3.54 13.04 3.74 13.8 2.93 13.26 1.96"/>
      </g>
    </g>
  </g>
</svg>