<svg width="140" height="39" viewBox="0 0 140 39" fill="none" xmlns="http://www.w3.org/2000/svg">
<path d="M29.5135 21.1613C29.5135 23.3894 29.3392 25.3187 29.0156 26.8995C28.7044 28.3808 28.194 29.6009 27.4845 30.547C26.7874 31.4557 25.8912 32.1152 24.7584 32.5509C23.551 33.0115 22.0199 33.2481 20.215 33.2481C20.2025 33.2481 20.1901 33.2481 20.1652 33.2481C18.6217 33.2481 17.3396 33.0115 16.3562 32.5509C15.3852 32.1028 14.6259 31.48 14.016 30.646C13.3936 29.7871 12.933 28.7171 12.6592 27.435C12.3604 26.0782 12.211 24.4973 12.2235 22.7422V7.71728C12.2235 6.33557 12.1488 5.21527 11.9994 4.29413C11.8252 3.23607 11.4766 2.40199 10.9663 1.72981C10.4186 1.02028 9.65925 0.522492 8.75056 0.298431C8.01614 0.111714 7.15723 0.0121561 6.11162 0.0121561H-0.000244141V3.8091H2.41463C3.92082 3.834 4.11997 4.25725 4.2071 4.45641C4.55564 5.22818 4.74237 6.36047 4.74237 7.71728V21.1613C4.74237 23.8127 4.97887 26.1898 5.43944 28.2312C5.92491 30.3723 6.75892 32.2025 7.91656 33.6589C9.0991 35.1527 10.6924 36.2726 12.6467 37.0195C14.5512 37.7414 16.8043 38.0777 19.5677 38.0777C22.3311 38.0777 24.7958 37.729 26.7252 37.0195C28.7044 36.2726 30.2977 35.1399 31.4429 33.6462C32.5757 32.1898 33.3599 30.3601 33.7831 28.1942C34.1814 26.1403 34.393 23.775 34.393 21.1485V0H29.5384V21.1485L29.5135 21.1613Z" fill="#0B0B0B"/>
<path d="M43.1313 1.66757C42.3844 1.97877 41.7745 2.41447 41.3139 2.93727C40.8533 3.47253 40.5297 4.10737 40.3679 4.80444C40.2309 5.37704 40.1562 5.99939 40.1562 6.62178V11.7875H43.8657V10.443C43.8657 8.79992 44.264 7.67991 45.0482 7.00773C45.8947 6.28576 47.1893 5.92463 48.8946 5.92463H52.131V37.5049H59.413V5.92463H70.8775V1.1947H45.8449C44.7868 1.1947 43.903 1.34422 43.1562 1.65542L43.1313 1.66757Z" fill="#0B0B0B"/>
<path d="M99.9804 27.1358C98.7356 29.2146 97.3166 30.8077 95.7481 31.8906C94.2171 32.9362 92.4246 33.4469 90.2711 33.4594C88.4413 33.4594 86.9226 33.0982 85.653 32.3513C84.346 31.5796 83.3128 30.6091 82.4912 29.3767C81.6448 28.1195 81.0224 26.6625 80.6365 25.0443C80.2257 23.3639 80.0266 21.6338 80.0266 19.9035C80.0266 17.0779 80.3129 14.6879 80.8855 12.7959C81.4332 10.9785 82.1925 9.48471 83.1261 8.38931C84.0597 7.30635 85.0928 6.5472 86.2878 6.07418C87.545 5.57627 88.852 5.33996 90.2711 5.33996C92.6237 5.33996 94.4536 5.97487 95.8726 7.28189C97.3041 8.60136 98.2999 10.7544 98.8601 13.7045L99.0717 14.7749H102.408V13.456C102.408 11.9622 102.358 10.4931 102.258 9.08646C102.146 7.45579 101.686 6.1489 100.914 5.16552C99.8933 3.88339 98.3497 2.838 96.1963 1.96665C94.1299 1.13265 91.6404 0.709106 88.8272 0.709106C86.5741 0.709106 84.4206 1.21944 82.4414 2.24016C80.4871 3.23599 78.7444 4.64269 77.288 6.38538C75.8565 8.10318 74.6989 10.1572 73.8525 12.4725C73.0185 14.7754 72.5952 17.277 72.5952 19.9035C72.5952 22.53 72.9686 24.7705 73.7031 26.9364C74.4499 29.1521 75.5329 31.1066 76.9395 32.7373C78.3461 34.3928 80.0764 35.7125 82.0929 36.671C84.1094 37.6295 86.3749 38.1145 88.8272 38.1145C90.3458 38.1145 91.8022 37.9778 93.159 37.6915C94.5656 37.3927 95.8851 36.8827 97.0925 36.1732C98.2875 35.4637 99.4202 34.5301 100.453 33.3974C101.474 32.2646 102.408 30.8579 103.229 29.2023L103.727 28.2189L100.752 25.9159L99.9929 27.1735L99.9804 27.1358Z" fill="#0B0B0B"/>
<path d="M137.05 25.8912L136.291 27.1487C135.046 29.2275 133.614 30.833 132.058 31.9036C130.527 32.9492 128.735 33.4592 126.581 33.4717C124.739 33.4717 123.233 33.1111 121.963 32.3643C120.656 31.5925 119.623 30.6214 118.801 29.3891C117.955 28.1194 117.333 26.663 116.947 25.0573C116.536 23.3768 116.337 21.6467 116.337 19.9165C116.337 17.0908 116.623 14.7009 117.196 12.8088C117.743 10.979 118.503 9.49765 119.436 8.40225C120.357 7.31929 121.403 6.55953 122.598 6.08652C123.855 5.5886 125.162 5.35229 126.581 5.35229C128.934 5.35229 130.764 5.9872 132.183 7.29422C133.602 8.60124 134.61 10.7674 135.17 13.7175L135.369 14.7878H138.705V13.4683C138.705 11.9372 138.656 10.4687 138.556 9.0994C138.444 7.48118 137.983 6.16123 137.199 5.17785C136.179 3.89573 134.635 2.85033 132.482 1.97898C130.415 1.14498 127.938 0.722046 125.112 0.722046C122.859 0.722046 120.706 1.23238 118.727 2.2531C116.76 3.26137 115.03 4.65502 113.573 6.39771C112.142 8.11551 110.984 10.1696 110.138 12.4849C109.304 14.7877 108.88 17.29 108.88 19.9165C108.88 22.543 109.254 24.771 109.988 26.9494C110.723 29.1526 111.818 31.1071 113.225 32.7502C114.631 34.4058 116.362 35.7248 118.378 36.6833C120.395 37.6418 122.66 38.1275 125.112 38.1275C126.631 38.1275 128.087 37.9907 129.444 37.7044C130.851 37.4057 132.17 36.8951 133.378 36.1855C134.573 35.476 135.706 34.5424 136.739 33.4097C137.759 32.2769 138.705 30.8705 139.527 29.2025L140 28.2191L137.037 25.9161L137.05 25.8912Z" fill="#0B0B0B"/>
</svg>
