<svg width="30" height="30" viewBox="0 0 30 30" fill="none" xmlns="http://www.w3.org/2000/svg">
<path d="M14.1869 4.79524C14.106 5.05752 14.0625 5.33618 14.0625 5.625C14.0625 6.14277 14.4822 6.5625 15 6.5625H20.625C21.1428 6.5625 21.5625 6.14277 21.5625 5.625C21.5625 5.33618 21.519 5.05752 21.4381 4.79524M14.1869 4.79524C14.5409 3.64696 15.6105 2.8125 16.875 2.8125H18.75C20.0145 2.8125 21.0841 3.64696 21.4381 4.79524M14.1869 4.79524C13.7173 4.82323 13.2492 4.85662 12.7826 4.89534C11.3687 5.01269 10.3125 6.21655 10.3125 7.63528V10.3125M21.4381 4.79524C21.9077 4.82323 22.3758 4.85662 22.8424 4.89534C24.2563 5.01269 25.3125 6.21654 25.3125 7.63527V20.625C25.3125 22.1783 24.0533 23.4375 22.5 23.4375H19.6875M10.3125 10.3125H6.09375C5.3171 10.3125 4.6875 10.9421 4.6875 11.7188V25.7812C4.6875 26.5579 5.3171 27.1875 6.09375 27.1875H18.2812C19.0579 27.1875 19.6875 26.5579 19.6875 25.7812V23.4375M10.3125 10.3125H18.2812C19.0579 10.3125 19.6875 10.9421 19.6875 11.7188V23.4375M9.375 19.6875L11.25 21.5625L15 16.875" stroke="#0B0B0B" stroke-width="1.5" stroke-linecap="round" stroke-linejoin="round"/>
</svg>
