<svg width="30" height="30" viewBox="0 0 30 30" fill="none" xmlns="http://www.w3.org/2000/svg">
<g id="heroicons-outline/calculator">
<path id="Vector" d="M19.6875 19.6875V22.5M10.3125 14.0625H10.3219V14.0719H10.3125V14.0625ZM10.3125 16.875H10.3219V16.8844H10.3125V16.875ZM10.3125 19.6875H10.3219V19.6969H10.3125V19.6875ZM10.3125 22.5H10.3219V22.5094H10.3125V22.5ZM13.4344 14.0625H13.4438V14.0719H13.4344V14.0625ZM13.4344 16.875H13.4438V16.8844H13.4344V16.875ZM13.4344 19.6875H13.4438V19.6969H13.4344V19.6875ZM13.4344 22.5H13.4438V22.5094H13.4344V22.5ZM16.5656 14.0625H16.5749V14.0719H16.5656V14.0625ZM16.5656 16.875H16.5749V16.8844H16.5656V16.875ZM16.5656 19.6875H16.5749V19.6969H16.5656V19.6875ZM16.5656 22.5H16.5749V22.5094H16.5656V22.5ZM19.6875 14.0625H19.6969V14.0719H19.6875V14.0625ZM19.6875 16.875H19.6969V16.8844H19.6875V16.875ZM10.3125 7.5H19.6875V10.3125H10.3125V7.5ZM15 2.8125C12.635 2.8125 10.302 2.94933 8.00835 3.21551C6.6326 3.37517 5.625 4.56125 5.625 5.94623V24.375C5.625 25.9283 6.8842 27.1875 8.4375 27.1875H21.5625C23.1158 27.1875 24.375 25.9283 24.375 24.375V5.94623C24.375 4.56125 23.3674 3.37517 21.9917 3.21551C19.6981 2.94933 17.365 2.8125 15 2.8125Z" stroke="#0B0B0B" stroke-width="1.5" stroke-linecap="round" stroke-linejoin="round"/>
</g>
</svg>
