<svg width="30" height="30" viewBox="0 0 30 30" fill="none" xmlns="http://www.w3.org/2000/svg">
<path d="M29 6.1V23.9375C28.9937 26.7313 26.7062 29 23.9062 29H16.9375V19.8875H21.2687L22.1688 15H16.9438V13.2625C16.9438 10.6812 17.9562 9.6875 20.5812 9.6875C21.4 9.6875 22.0562 9.7125 22.4312 9.75V5.325C21.7125 5.125 19.9625 4.925 18.95 4.925C16.175 4.925 14.175 5.60625 12.8938 7.01875C11.7063 8.33125 11.1375 10.275 11.1375 12.8938V15H7.8375V19.8875H11.1375V29H6.0625C3.26875 28.9937 1 26.7 1 23.9V6.0625C1.00625 3.26875 3.3 1 6.09375 1H23.9375C26.7313 1.00625 29 3.3 29 6.1Z" fill="#0B0B0B"/>
</svg>
