<svg width="30" height="30" viewBox="0 0 30 30" fill="none" xmlns="http://www.w3.org/2000/svg">
<path d="M17.7787 13.15C16.7535 11.6187 14.6843 11.2063 13.1527 12.2312C11.6211 13.2562 11.2085 15.325 12.2338 16.8563C13.259 18.3875 15.3282 18.8 16.8598 17.775C17.8225 17.1313 18.3414 16.075 18.3414 15C18.3414 14.3625 18.1601 13.7188 17.7787 13.15ZM17.7787 13.15C16.7535 11.6187 14.6843 11.2063 13.1527 12.2312C11.6211 13.2562 11.2085 15.325 12.2338 16.8563C13.259 18.3875 15.3282 18.8 16.8598 17.775C17.8225 17.1313 18.3414 16.075 18.3414 15C18.3414 14.3625 18.1601 13.7188 17.7787 13.15ZM17.7787 13.15C16.7535 11.6187 14.6843 11.2063 13.1527 12.2312C11.6211 13.2562 11.2085 15.325 12.2338 16.8563C13.259 18.3875 15.3282 18.8 16.8598 17.775C17.8225 17.1313 18.3414 16.075 18.3414 15C18.3414 14.3625 18.1601 13.7188 17.7787 13.15ZM17.7787 13.15C16.7535 11.6187 14.6843 11.2063 13.1527 12.2312C11.6211 13.2562 11.2085 15.325 12.2338 16.8563C13.259 18.3875 15.3282 18.8 16.8598 17.775C17.8225 17.1313 18.3414 16.075 18.3414 15C18.3414 14.3625 18.1601 13.7188 17.7787 13.15ZM17.7787 13.15C16.7535 11.6187 14.6843 11.2063 13.1527 12.2312C11.6211 13.2562 11.2085 15.325 12.2338 16.8563C13.259 18.3875 15.3282 18.8 16.8598 17.775C17.8225 17.1313 18.3414 16.075 18.3414 15C18.3414 14.3625 18.1601 13.7188 17.7787 13.15ZM23.1987 14.9937C23.1987 14.7875 23.1987 14.55 23.2049 14.2812C23.2237 12.6875 23.2487 10.225 22.7986 9.09375C22.7111 8.875 22.6111 8.675 22.4798 8.48125C22.3548 8.2875 22.211 8.10625 22.0484 7.94375V7.95625C21.7234 7.63125 21.3295 7.375 20.8982 7.20625C20.8357 7.18125 20.7669 7.15625 20.6981 7.1375C19.4979 6.7625 17.2099 6.78125 15.7033 6.8C15.447 6.8 15.2094 6.80625 15.0031 6.80625C14.7968 6.80625 14.553 6.80625 14.2905 6.8C12.7839 6.78125 10.5021 6.75625 9.30185 7.1375C9.23308 7.15625 9.16432 7.18125 9.10806 7.20625C8.67671 7.375 8.28912 7.63125 7.9578 7.95625C7.62648 8.28125 7.37642 8.675 7.20763 9.10625C6.76378 10.2375 6.78879 12.7125 6.80129 14.3062C6.80129 14.5625 6.80754 14.8 6.80754 15C6.80754 15.2 6.80754 15.4375 6.80129 15.6938C6.78879 17.2875 6.76378 19.7625 7.20763 20.8937C7.37642 21.325 7.63273 21.7125 7.9578 22.0438C8.28287 22.375 8.67671 22.625 9.10806 22.7938C9.17057 22.8188 9.23934 22.8438 9.31435 22.8625C10.5209 23.2312 12.8026 23.2125 14.303 23.2C14.5593 23.2 14.7968 23.1938 15.0031 23.1938C15.2094 23.1938 15.4532 23.1938 15.7158 23.2C17.2224 23.2188 19.5041 23.2437 20.7044 22.8625C20.7732 22.8438 20.8419 22.8188 20.8982 22.7938C21.3295 22.625 21.7171 22.3688 22.0484 22.0438C22.3798 21.7188 22.6298 21.325 22.7986 20.8937C23.2487 19.7687 23.2237 17.3062 23.2049 15.7062C23.2049 15.4437 23.1987 15.2 23.1987 14.9937ZM10.7397 12.1562C12.315 9.8 15.497 9.16875 17.8538 10.7375H17.86C20.2168 12.3125 20.8482 15.4938 19.2728 17.85C17.6975 20.2063 14.5155 20.8375 12.1587 19.2625C9.79571 17.6875 9.16432 14.5063 10.7397 12.1562ZM21.4483 10.1125C21.392 10.2563 21.2983 10.3875 21.192 10.5C21.0857 10.6125 20.9482 10.7 20.8044 10.7625C20.6606 10.825 20.5043 10.8562 20.3481 10.8562C20.2293 10.8562 20.1105 10.8375 19.998 10.8062C19.8855 10.775 19.7792 10.725 19.6854 10.6562H19.6792C19.4854 10.525 19.3291 10.3375 19.2353 10.1187C19.1415 9.9 19.1228 9.6625 19.1665 9.425C19.2103 9.1875 19.3291 8.98125 19.4916 8.8125C19.6542 8.64375 19.873 8.53125 20.1043 8.4875C20.3356 8.44375 20.5794 8.4625 20.7982 8.55625C21.017 8.65 21.2045 8.8 21.3358 8.99375C21.4671 9.1875 21.5358 9.41875 21.5358 9.65625C21.5358 9.8125 21.5046 9.96875 21.4483 10.1125ZM18.3414 15C18.3414 14.3625 18.1601 13.7188 17.7787 13.15C16.7535 11.6187 14.6843 11.2063 13.1527 12.2312C11.6211 13.2562 11.2085 15.325 12.2338 16.8563C13.259 18.3875 15.3282 18.8 16.8598 17.775C17.8225 17.1313 18.3414 16.075 18.3414 15ZM17.7787 13.15C16.7535 11.6187 14.6843 11.2063 13.1527 12.2312C11.6211 13.2562 11.2085 15.325 12.2338 16.8563C13.259 18.3875 15.3282 18.8 16.8598 17.775C17.8225 17.1313 18.3414 16.075 18.3414 15C18.3414 14.3625 18.1601 13.7188 17.7787 13.15ZM17.7787 13.15C16.7535 11.6187 14.6843 11.2063 13.1527 12.2312C11.6211 13.2562 11.2085 15.325 12.2338 16.8563C13.259 18.3875 15.3282 18.8 16.8598 17.775C17.8225 17.1313 18.3414 16.075 18.3414 15C18.3414 14.3625 18.1601 13.7188 17.7787 13.15ZM17.7787 13.15C16.7535 11.6187 14.6843 11.2063 13.1527 12.2312C11.6211 13.2562 11.2085 15.325 12.2338 16.8563C13.259 18.3875 15.3282 18.8 16.8598 17.775C17.8225 17.1313 18.3414 16.075 18.3414 15C18.3414 14.3625 18.1601 13.7188 17.7787 13.15ZM17.7787 13.15C16.7535 11.6187 14.6843 11.2063 13.1527 12.2312C11.6211 13.2562 11.2085 15.325 12.2338 16.8563C13.259 18.3875 15.3282 18.8 16.8598 17.775C17.8225 17.1313 18.3414 16.075 18.3414 15C18.3414 14.3625 18.1601 13.7188 17.7787 13.15ZM17.7787 13.15C16.7535 11.6187 14.6843 11.2063 13.1527 12.2312C11.6211 13.2562 11.2085 15.325 12.2338 16.8563C13.259 18.3875 15.3282 18.8 16.8598 17.775C17.8225 17.1313 18.3414 16.075 18.3414 15C18.3414 14.3625 18.1601 13.7188 17.7787 13.15ZM17.7787 13.15C16.7535 11.6187 14.6843 11.2063 13.1527 12.2312C11.6211 13.2562 11.2085 15.325 12.2338 16.8563C13.259 18.3875 15.3282 18.8 16.8598 17.775C17.8225 17.1313 18.3414 16.075 18.3414 15C18.3414 14.3625 18.1601 13.7188 17.7787 13.15ZM17.7787 13.15C16.7535 11.6187 14.6843 11.2063 13.1527 12.2312C11.6211 13.2562 11.2085 15.325 12.2338 16.8563C13.259 18.3875 15.3282 18.8 16.8598 17.775C17.8225 17.1313 18.3414 16.075 18.3414 15C18.3414 14.3625 18.1601 13.7188 17.7787 13.15ZM23.1987 14.9937C23.1987 14.7875 23.1987 14.55 23.2049 14.2812C23.2237 12.6875 23.2487 10.225 22.7986 9.09375C22.7111 8.875 22.6111 8.675 22.4798 8.48125C22.3548 8.2875 22.211 8.10625 22.0484 7.94375V7.95625C21.7234 7.63125 21.3295 7.375 20.8982 7.20625C20.8357 7.18125 20.7669 7.15625 20.6981 7.1375C19.4979 6.7625 17.2099 6.78125 15.7033 6.8C15.447 6.8 15.2094 6.80625 15.0031 6.80625C14.7968 6.80625 14.553 6.80625 14.2905 6.8C12.7839 6.78125 10.5021 6.75625 9.30185 7.1375C9.23308 7.15625 9.16432 7.18125 9.10806 7.20625C8.67671 7.375 8.28912 7.63125 7.9578 7.95625C7.62648 8.28125 7.37642 8.675 7.20763 9.10625C6.76378 10.2375 6.78879 12.7125 6.80129 14.3062C6.80129 14.5625 6.80754 14.8 6.80754 15C6.80754 15.2 6.80754 15.4375 6.80129 15.6938C6.78879 17.2875 6.76378 19.7625 7.20763 20.8937C7.37642 21.325 7.63273 21.7125 7.9578 22.0438C8.28287 22.375 8.67671 22.625 9.10806 22.7938C9.17057 22.8188 9.23934 22.8438 9.31435 22.8625C10.5209 23.2312 12.8026 23.2125 14.303 23.2C14.5593 23.2 14.7968 23.1938 15.0031 23.1938C15.2094 23.1938 15.4532 23.1938 15.7158 23.2C17.2224 23.2188 19.5041 23.2437 20.7044 22.8625C20.7732 22.8438 20.8419 22.8188 20.8982 22.7938C21.3295 22.625 21.7171 22.3688 22.0484 22.0438C22.3798 21.7188 22.6298 21.325 22.7986 20.8937C23.2487 19.7687 23.2237 17.3062 23.2049 15.7062C23.2049 15.4437 23.1987 15.2 23.1987 14.9937ZM10.7397 12.1562C12.315 9.8 15.497 9.16875 17.8538 10.7375H17.86C20.2168 12.3125 20.8482 15.4938 19.2728 17.85C17.6975 20.2063 14.5155 20.8375 12.1587 19.2625C9.79571 17.6875 9.16432 14.5063 10.7397 12.1562ZM21.4483 10.1125C21.392 10.2563 21.2983 10.3875 21.192 10.5C21.0857 10.6125 20.9482 10.7 20.8044 10.7625C20.6606 10.825 20.5043 10.8562 20.3481 10.8562C20.2293 10.8562 20.1105 10.8375 19.998 10.8062C19.8855 10.775 19.7792 10.725 19.6854 10.6562H19.6792C19.4854 10.525 19.3291 10.3375 19.2353 10.1187C19.1415 9.9 19.1228 9.6625 19.1665 9.425C19.2103 9.1875 19.3291 8.98125 19.4916 8.8125C19.6542 8.64375 19.873 8.53125 20.1043 8.4875C20.3356 8.44375 20.5794 8.4625 20.7982 8.55625C21.017 8.65 21.2045 8.8 21.3358 8.99375C21.4671 9.1875 21.5358 9.41875 21.5358 9.65625C21.5358 9.8125 21.5046 9.96875 21.4483 10.1125ZM18.3414 15C18.3414 14.3625 18.1601 13.7188 17.7787 13.15C16.7535 11.6187 14.6843 11.2063 13.1527 12.2312C11.6211 13.2562 11.2085 15.325 12.2338 16.8563C13.259 18.3875 15.3282 18.8 16.8598 17.775C17.8225 17.1313 18.3414 16.075 18.3414 15ZM17.7787 13.15C16.7535 11.6187 14.6843 11.2063 13.1527 12.2312C11.6211 13.2562 11.2085 15.325 12.2338 16.8563C13.259 18.3875 15.3282 18.8 16.8598 17.775C17.8225 17.1313 18.3414 16.075 18.3414 15C18.3414 14.3625 18.1601 13.7188 17.7787 13.15ZM17.7787 13.15C16.7535 11.6187 14.6843 11.2063 13.1527 12.2312C11.6211 13.2562 11.2085 15.325 12.2338 16.8563C13.259 18.3875 15.3282 18.8 16.8598 17.775C17.8225 17.1313 18.3414 16.075 18.3414 15C18.3414 14.3625 18.1601 13.7188 17.7787 13.15ZM17.7787 13.15C16.7535 11.6187 14.6843 11.2063 13.1527 12.2312C11.6211 13.2562 11.2085 15.325 12.2338 16.8563C13.259 18.3875 15.3282 18.8 16.8598 17.775C17.8225 17.1313 18.3414 16.075 18.3414 15C18.3414 14.3625 18.1601 13.7188 17.7787 13.15ZM17.7787 13.15C16.7535 11.6187 14.6843 11.2063 13.1527 12.2312C11.6211 13.2562 11.2085 15.325 12.2338 16.8563C13.259 18.3875 15.3282 18.8 16.8598 17.775C17.8225 17.1313 18.3414 16.075 18.3414 15C18.3414 14.3625 18.1601 13.7188 17.7787 13.15ZM23.1987 14.9937C23.1987 14.7875 23.1987 14.55 23.2049 14.2812C23.2237 12.6875 23.2487 10.225 22.7986 9.09375C22.7111 8.875 22.6111 8.675 22.4798 8.48125C22.3548 8.2875 22.211 8.10625 22.0484 7.94375V7.95625C21.7234 7.63125 21.3295 7.375 20.8982 7.20625C20.8357 7.18125 20.7669 7.15625 20.6981 7.1375C19.4979 6.7625 17.2099 6.78125 15.7033 6.8C15.447 6.8 15.2094 6.80625 15.0031 6.80625C14.7968 6.80625 14.553 6.80625 14.2905 6.8C12.7839 6.78125 10.5021 6.75625 9.30185 7.1375C9.23308 7.15625 9.16432 7.18125 9.10806 7.20625C8.67671 7.375 8.28912 7.63125 7.9578 7.95625C7.62648 8.28125 7.37642 8.675 7.20763 9.10625C6.76378 10.2375 6.78879 12.7125 6.80129 14.3062C6.80129 14.5625 6.80754 14.8 6.80754 15C6.80754 15.2 6.80754 15.4375 6.80129 15.6938C6.78879 17.2875 6.76378 19.7625 7.20763 20.8937C7.37642 21.325 7.63273 21.7125 7.9578 22.0438C8.28287 22.375 8.67671 22.625 9.10806 22.7938C9.17057 22.8188 9.23934 22.8438 9.31435 22.8625C10.5209 23.2312 12.8026 23.2125 14.303 23.2C14.5593 23.2 14.7968 23.1938 15.0031 23.1938C15.2094 23.1938 15.4532 23.1938 15.7158 23.2C17.2224 23.2188 19.5041 23.2437 20.7044 22.8625C20.7732 22.8438 20.8419 22.8188 20.8982 22.7938C21.3295 22.625 21.7171 22.3688 22.0484 22.0438C22.3798 21.7188 22.6298 21.325 22.7986 20.8937C23.2487 19.7687 23.2237 17.3062 23.2049 15.7062C23.2049 15.4437 23.1987 15.2 23.1987 14.9937ZM10.7397 12.1562C12.315 9.8 15.497 9.16875 17.8538 10.7375H17.86C20.2168 12.3125 20.8482 15.4938 19.2728 17.85C17.6975 20.2063 14.5155 20.8375 12.1587 19.2625C9.79571 17.6875 9.16432 14.5063 10.7397 12.1562ZM21.4483 10.1125C21.392 10.2563 21.2983 10.3875 21.192 10.5C21.0857 10.6125 20.9482 10.7 20.8044 10.7625C20.6606 10.825 20.5043 10.8562 20.3481 10.8562C20.2293 10.8562 20.1105 10.8375 19.998 10.8062C19.8855 10.775 19.7792 10.725 19.6854 10.6562H19.6792C19.4854 10.525 19.3291 10.3375 19.2353 10.1187C19.1415 9.9 19.1228 9.6625 19.1665 9.425C19.2103 9.1875 19.3291 8.98125 19.4916 8.8125C19.6542 8.64375 19.873 8.53125 20.1043 8.4875C20.3356 8.44375 20.5794 8.4625 20.7982 8.55625C21.017 8.65 21.2045 8.8 21.3358 8.99375C21.4671 9.1875 21.5358 9.41875 21.5358 9.65625C21.5358 9.8125 21.5046 9.96875 21.4483 10.1125ZM18.3414 15C18.3414 14.3625 18.1601 13.7188 17.7787 13.15C16.7535 11.6187 14.6843 11.2063 13.1527 12.2312C11.6211 13.2562 11.2085 15.325 12.2338 16.8563C13.259 18.3875 15.3282 18.8 16.8598 17.775C17.8225 17.1313 18.3414 16.075 18.3414 15ZM17.7787 13.15C16.7535 11.6187 14.6843 11.2063 13.1527 12.2312C11.6211 13.2562 11.2085 15.325 12.2338 16.8563C13.259 18.3875 15.3282 18.8 16.8598 17.775C17.8225 17.1313 18.3414 16.075 18.3414 15C18.3414 14.3625 18.1601 13.7188 17.7787 13.15ZM17.7787 13.15C16.7535 11.6187 14.6843 11.2063 13.1527 12.2312C11.6211 13.2562 11.2085 15.325 12.2338 16.8563C13.259 18.3875 15.3282 18.8 16.8598 17.775C17.8225 17.1313 18.3414 16.075 18.3414 15C18.3414 14.3625 18.1601 13.7188 17.7787 13.15ZM17.7787 13.15C16.7535 11.6187 14.6843 11.2063 13.1527 12.2312C11.6211 13.2562 11.2085 15.325 12.2338 16.8563C13.259 18.3875 15.3282 18.8 16.8598 17.775C17.8225 17.1313 18.3414 16.075 18.3414 15C18.3414 14.3625 18.1601 13.7188 17.7787 13.15ZM17.7787 13.15C16.7535 11.6187 14.6843 11.2063 13.1527 12.2312C11.6211 13.2562 11.2085 15.325 12.2338 16.8563C13.259 18.3875 15.3282 18.8 16.8598 17.775C17.8225 17.1313 18.3414 16.075 18.3414 15C18.3414 14.3625 18.1601 13.7188 17.7787 13.15ZM23.1987 14.9937C23.1987 14.7875 23.1987 14.55 23.2049 14.2812C23.2237 12.6875 23.2487 10.225 22.7986 9.09375C22.7111 8.875 22.6111 8.675 22.4798 8.48125C22.3548 8.2875 22.211 8.10625 22.0484 7.94375V7.95625C21.7234 7.63125 21.3295 7.375 20.8982 7.20625C20.8357 7.18125 20.7669 7.15625 20.6981 7.1375C19.4979 6.7625 17.2099 6.78125 15.7033 6.8C15.447 6.8 15.2094 6.80625 15.0031 6.80625C14.7968 6.80625 14.553 6.80625 14.2905 6.8C12.7839 6.78125 10.5021 6.75625 9.30185 7.1375C9.23308 7.15625 9.16432 7.18125 9.10806 7.20625C8.67671 7.375 8.28912 7.63125 7.9578 7.95625C7.62648 8.28125 7.37642 8.675 7.20763 9.10625C6.76378 10.2375 6.78879 12.7125 6.80129 14.3062C6.80129 14.5625 6.80754 14.8 6.80754 15C6.80754 15.2 6.80754 15.4375 6.80129 15.6938C6.78879 17.2875 6.76378 19.7625 7.20763 20.8937C7.37642 21.325 7.63273 21.7125 7.9578 22.0438C8.28287 22.375 8.67671 22.625 9.10806 22.7938C9.17057 22.8188 9.23934 22.8438 9.31435 22.8625C10.5209 23.2312 12.8026 23.2125 14.303 23.2C14.5593 23.2 14.7968 23.1938 15.0031 23.1938C15.2094 23.1938 15.4532 23.1938 15.7158 23.2C17.2224 23.2188 19.5041 23.2437 20.7044 22.8625C20.7732 22.8438 20.8419 22.8188 20.8982 22.7938C21.3295 22.625 21.7171 22.3688 22.0484 22.0438C22.3798 21.7188 22.6298 21.325 22.7986 20.8937C23.2487 19.7687 23.2237 17.3062 23.2049 15.7062C23.2049 15.4437 23.1987 15.2 23.1987 14.9937ZM10.7397 12.1562C12.315 9.8 15.497 9.16875 17.8538 10.7375H17.86C20.2168 12.3125 20.8482 15.4938 19.2728 17.85C17.6975 20.2063 14.5155 20.8375 12.1587 19.2625C9.79571 17.6875 9.16432 14.5063 10.7397 12.1562ZM21.4483 10.1125C21.392 10.2563 21.2983 10.3875 21.192 10.5C21.0857 10.6125 20.9482 10.7 20.8044 10.7625C20.6606 10.825 20.5043 10.8562 20.3481 10.8562C20.2293 10.8562 20.1105 10.8375 19.998 10.8062C19.8855 10.775 19.7792 10.725 19.6854 10.6562H19.6792C19.4854 10.525 19.3291 10.3375 19.2353 10.1187C19.1415 9.9 19.1228 9.6625 19.1665 9.425C19.2103 9.1875 19.3291 8.98125 19.4916 8.8125C19.6542 8.64375 19.873 8.53125 20.1043 8.4875C20.3356 8.44375 20.5794 8.4625 20.7982 8.55625C21.017 8.65 21.2045 8.8 21.3358 8.99375C21.4671 9.1875 21.5358 9.41875 21.5358 9.65625C21.5358 9.8125 21.5046 9.96875 21.4483 10.1125ZM18.3414 15C18.3414 14.3625 18.1601 13.7188 17.7787 13.15C16.7535 11.6187 14.6843 11.2063 13.1527 12.2312C11.6211 13.2562 11.2085 15.325 12.2338 16.8563C13.259 18.3875 15.3282 18.8 16.8598 17.775C17.8225 17.1313 18.3414 16.075 18.3414 15ZM23.1987 14.9937C23.1987 14.7875 23.1987 14.55 23.2049 14.2812C23.2237 12.6875 23.2487 10.225 22.7986 9.09375C22.7111 8.875 22.6111 8.675 22.4798 8.48125C22.3548 8.2875 22.211 8.10625 22.0484 7.94375V7.95625C21.7234 7.63125 21.3295 7.375 20.8982 7.20625C20.8357 7.18125 20.7669 7.15625 20.6981 7.1375C19.4979 6.7625 17.2099 6.78125 15.7033 6.8C15.447 6.8 15.2094 6.80625 15.0031 6.80625C14.7968 6.80625 14.553 6.80625 14.2905 6.8C12.7839 6.78125 10.5021 6.75625 9.30185 7.1375C9.23308 7.15625 9.16432 7.18125 9.10806 7.20625C8.67671 7.375 8.28912 7.63125 7.9578 7.95625C7.62648 8.28125 7.37642 8.675 7.20763 9.10625C6.76378 10.2375 6.78879 12.7125 6.80129 14.3062C6.80129 14.5625 6.80754 14.8 6.80754 15C6.80754 15.2 6.80754 15.4375 6.80129 15.6938C6.78879 17.2875 6.76378 19.7625 7.20763 20.8937C7.37642 21.325 7.63273 21.7125 7.9578 22.0438C8.28287 22.375 8.67671 22.625 9.10806 22.7938C9.17057 22.8188 9.23934 22.8438 9.31435 22.8625C10.5209 23.2312 12.8026 23.2125 14.303 23.2C14.5593 23.2 14.7968 23.1938 15.0031 23.1938C15.2094 23.1938 15.4532 23.1938 15.7158 23.2C17.2224 23.2188 19.5041 23.2437 20.7044 22.8625C20.7732 22.8438 20.8419 22.8188 20.8982 22.7938C21.3295 22.625 21.7171 22.3688 22.0484 22.0438C22.3798 21.7188 22.6298 21.325 22.7986 20.8937C23.2487 19.7687 23.2237 17.3062 23.2049 15.7062C23.2049 15.4437 23.1987 15.2 23.1987 14.9937ZM10.7397 12.1562C12.315 9.8 15.497 9.16875 17.8538 10.7375H17.86C20.2168 12.3125 20.8482 15.4938 19.2728 17.85C17.6975 20.2063 14.5155 20.8375 12.1587 19.2625C9.79571 17.6875 9.16432 14.5063 10.7397 12.1562ZM21.4483 10.1125C21.392 10.2563 21.2983 10.3875 21.192 10.5C21.0857 10.6125 20.9482 10.7 20.8044 10.7625C20.6606 10.825 20.5043 10.8562 20.3481 10.8562C20.2293 10.8562 20.1105 10.8375 19.998 10.8062C19.8855 10.775 19.7792 10.725 19.6854 10.6562H19.6792C19.4854 10.525 19.3291 10.3375 19.2353 10.1187C19.1415 9.9 19.1228 9.6625 19.1665 9.425C19.2103 9.1875 19.3291 8.98125 19.4916 8.8125C19.6542 8.64375 19.873 8.53125 20.1043 8.4875C20.3356 8.44375 20.5794 8.4625 20.7982 8.55625C21.017 8.65 21.2045 8.8 21.3358 8.99375C21.4671 9.1875 21.5358 9.41875 21.5358 9.65625C21.5358 9.8125 21.5046 9.96875 21.4483 10.1125ZM18.3414 15C18.3414 14.3625 18.1601 13.7188 17.7787 13.15C16.7535 11.6187 14.6843 11.2063 13.1527 12.2312C11.6211 13.2562 11.2085 15.325 12.2338 16.8563C13.259 18.3875 15.3282 18.8 16.8598 17.775C17.8225 17.1313 18.3414 16.075 18.3414 15ZM23.9426 1H6.09488C3.30051 1 1.00625 3.26875 1 6.0625V23.9C1 26.6938 3.26926 28.9937 6.06363 29H23.9051C26.7057 29 29 26.7313 29 23.9375V6.1C29.0062 3.3 26.737 1.00625 23.9426 1ZM23.3175 23.3062C22.1485 24.4812 20.7294 24.85 19.129 24.9312C17.4787 25.025 12.5276 25.025 10.8772 24.9312C9.27684 24.85 7.85778 24.4813 6.68877 23.3125C6.42621 23.05 6.20741 22.7812 6.02612 22.5C5.37597 21.5063 5.13842 20.3687 5.07591 19.125C4.98214 17.475 4.98214 12.525 5.07591 10.875C5.13842 9.63125 5.36972 8.5 6.01987 7.50625C6.20741 7.21875 6.42621 6.94375 6.68877 6.6875C7.85778 5.51875 9.2831 5.15 10.8772 5.075C12.5276 4.98125 17.4787 4.98125 19.129 5.075C20.7294 5.15625 22.1485 5.51875 23.3175 6.6875C23.58 6.95 23.7988 7.225 23.9864 7.50625C24.6365 8.5 24.8741 9.63125 24.9303 10.875C25.0241 12.5188 25.0241 17.4625 24.9303 19.1187C24.8678 20.3625 24.6303 21.5 23.9801 22.4937C23.7988 22.775 23.58 23.05 23.3175 23.3062ZM22.7986 9.09375C22.7111 8.875 22.6111 8.675 22.4798 8.48125C22.3548 8.2875 22.211 8.10625 22.0484 7.94375V7.95625C21.7234 7.63125 21.3295 7.375 20.8982 7.20625C20.8357 7.18125 20.7669 7.15625 20.6981 7.1375C19.4979 6.7625 17.2099 6.78125 15.7033 6.8C15.447 6.8 15.2094 6.80625 15.0031 6.80625C14.7968 6.80625 14.553 6.80625 14.2905 6.8C12.7839 6.78125 10.5021 6.75625 9.30185 7.1375C9.23308 7.15625 9.16432 7.18125 9.10806 7.20625C8.67671 7.375 8.28912 7.63125 7.9578 7.95625C7.62648 8.28125 7.37642 8.675 7.20763 9.10625C6.76378 10.2375 6.78879 12.7125 6.80129 14.3062C6.80129 14.5625 6.80754 14.8 6.80754 15C6.80754 15.2 6.80754 15.4375 6.80129 15.6938C6.78879 17.2875 6.76378 19.7625 7.20763 20.8937C7.37642 21.325 7.63273 21.7125 7.9578 22.0438C8.28287 22.375 8.67671 22.625 9.10806 22.7938C9.17057 22.8188 9.23934 22.8438 9.31435 22.8625C10.5209 23.2312 12.8026 23.2125 14.303 23.2C14.5593 23.2 14.7968 23.1938 15.0031 23.1938C15.2094 23.1938 15.4532 23.1938 15.7158 23.2C17.2224 23.2188 19.5041 23.2437 20.7044 22.8625C20.7732 22.8438 20.8419 22.8188 20.8982 22.7938C21.3295 22.625 21.7171 22.3688 22.0484 22.0438C22.3798 21.7188 22.6298 21.325 22.7986 20.8937C23.2487 19.7687 23.2237 17.3062 23.2049 15.7062C23.2049 15.4437 23.1987 15.2 23.1987 14.9937C23.1987 14.7875 23.1987 14.55 23.2049 14.2812C23.2237 12.6875 23.2487 10.225 22.7986 9.09375ZM10.7397 12.1562C12.315 9.8 15.497 9.16875 17.8538 10.7375H17.86C20.2168 12.3125 20.8482 15.4938 19.2728 17.85C17.6975 20.2063 14.5155 20.8375 12.1587 19.2625C9.79571 17.6875 9.16432 14.5063 10.7397 12.1562ZM21.4483 10.1125C21.392 10.2563 21.2983 10.3875 21.192 10.5C21.0857 10.6125 20.9482 10.7 20.8044 10.7625C20.6606 10.825 20.5043 10.8562 20.3481 10.8562C20.2293 10.8562 20.1105 10.8375 19.998 10.8062C19.8855 10.775 19.7792 10.725 19.6854 10.6562H19.6792C19.4854 10.525 19.3291 10.3375 19.2353 10.1187C19.1415 9.9 19.1228 9.6625 19.1665 9.425C19.2103 9.1875 19.3291 8.98125 19.4916 8.8125C19.6542 8.64375 19.873 8.53125 20.1043 8.4875C20.3356 8.44375 20.5794 8.4625 20.7982 8.55625C21.017 8.65 21.2045 8.8 21.3358 8.99375C21.4671 9.1875 21.5358 9.41875 21.5358 9.65625C21.5358 9.8125 21.5046 9.96875 21.4483 10.1125ZM18.3414 15C18.3414 14.3625 18.1601 13.7188 17.7787 13.15C16.7535 11.6187 14.6843 11.2063 13.1527 12.2312C11.6211 13.2562 11.2085 15.325 12.2338 16.8563C13.259 18.3875 15.3282 18.8 16.8598 17.775C17.8225 17.1313 18.3414 16.075 18.3414 15ZM17.7787 13.15C16.7535 11.6187 14.6843 11.2063 13.1527 12.2312C11.6211 13.2562 11.2085 15.325 12.2338 16.8563C13.259 18.3875 15.3282 18.8 16.8598 17.775C17.8225 17.1313 18.3414 16.075 18.3414 15C18.3414 14.3625 18.1601 13.7188 17.7787 13.15ZM17.7787 13.15C16.7535 11.6187 14.6843 11.2063 13.1527 12.2312C11.6211 13.2562 11.2085 15.325 12.2338 16.8563C13.259 18.3875 15.3282 18.8 16.8598 17.775C17.8225 17.1313 18.3414 16.075 18.3414 15C18.3414 14.3625 18.1601 13.7188 17.7787 13.15ZM23.1987 14.9937C23.1987 14.7875 23.1987 14.55 23.2049 14.2812C23.2237 12.6875 23.2487 10.225 22.7986 9.09375C22.7111 8.875 22.6111 8.675 22.4798 8.48125C22.3548 8.2875 22.211 8.10625 22.0484 7.94375V7.95625C21.7234 7.63125 21.3295 7.375 20.8982 7.20625C20.8357 7.18125 20.7669 7.15625 20.6981 7.1375C19.4979 6.7625 17.2099 6.78125 15.7033 6.8C15.447 6.8 15.2094 6.80625 15.0031 6.80625C14.7968 6.80625 14.553 6.80625 14.2905 6.8C12.7839 6.78125 10.5021 6.75625 9.30185 7.1375C9.23308 7.15625 9.16432 7.18125 9.10806 7.20625C8.67671 7.375 8.28912 7.63125 7.9578 7.95625C7.62648 8.28125 7.37642 8.675 7.20763 9.10625C6.76378 10.2375 6.78879 12.7125 6.80129 14.3062C6.80129 14.5625 6.80754 14.8 6.80754 15C6.80754 15.2 6.80754 15.4375 6.80129 15.6938C6.78879 17.2875 6.76378 19.7625 7.20763 20.8937C7.37642 21.325 7.63273 21.7125 7.9578 22.0438C8.28287 22.375 8.67671 22.625 9.10806 22.7938C9.17057 22.8188 9.23934 22.8438 9.31435 22.8625C10.5209 23.2312 12.8026 23.2125 14.303 23.2C14.5593 23.2 14.7968 23.1938 15.0031 23.1938C15.2094 23.1938 15.4532 23.1938 15.7158 23.2C17.2224 23.2188 19.5041 23.2437 20.7044 22.8625C20.7732 22.8438 20.8419 22.8188 20.8982 22.7938C21.3295 22.625 21.7171 22.3688 22.0484 22.0438C22.3798 21.7188 22.6298 21.325 22.7986 20.8937C23.2487 19.7687 23.2237 17.3062 23.2049 15.7062C23.2049 15.4437 23.1987 15.2 23.1987 14.9937ZM10.7397 12.1562C12.315 9.8 15.497 9.16875 17.8538 10.7375H17.86C20.2168 12.3125 20.8482 15.4938 19.2728 17.85C17.6975 20.2063 14.5155 20.8375 12.1587 19.2625C9.79571 17.6875 9.16432 14.5063 10.7397 12.1562ZM21.4483 10.1125C21.392 10.2563 21.2983 10.3875 21.192 10.5C21.0857 10.6125 20.9482 10.7 20.8044 10.7625C20.6606 10.825 20.5043 10.8562 20.3481 10.8562C20.2293 10.8562 20.1105 10.8375 19.998 10.8062C19.8855 10.775 19.7792 10.725 19.6854 10.6562H19.6792C19.4854 10.525 19.3291 10.3375 19.2353 10.1187C19.1415 9.9 19.1228 9.6625 19.1665 9.425C19.2103 9.1875 19.3291 8.98125 19.4916 8.8125C19.6542 8.64375 19.873 8.53125 20.1043 8.4875C20.3356 8.44375 20.5794 8.4625 20.7982 8.55625C21.017 8.65 21.2045 8.8 21.3358 8.99375C21.4671 9.1875 21.5358 9.41875 21.5358 9.65625C21.5358 9.8125 21.5046 9.96875 21.4483 10.1125ZM18.3414 15C18.3414 14.3625 18.1601 13.7188 17.7787 13.15C16.7535 11.6187 14.6843 11.2063 13.1527 12.2312C11.6211 13.2562 11.2085 15.325 12.2338 16.8563C13.259 18.3875 15.3282 18.8 16.8598 17.775C17.8225 17.1313 18.3414 16.075 18.3414 15ZM17.7787 13.15C16.7535 11.6187 14.6843 11.2063 13.1527 12.2312C11.6211 13.2562 11.2085 15.325 12.2338 16.8563C13.259 18.3875 15.3282 18.8 16.8598 17.775C17.8225 17.1313 18.3414 16.075 18.3414 15C18.3414 14.3625 18.1601 13.7188 17.7787 13.15ZM17.7787 13.15C16.7535 11.6187 14.6843 11.2063 13.1527 12.2312C11.6211 13.2562 11.2085 15.325 12.2338 16.8563C13.259 18.3875 15.3282 18.8 16.8598 17.775C17.8225 17.1313 18.3414 16.075 18.3414 15C18.3414 14.3625 18.1601 13.7188 17.7787 13.15ZM23.1987 14.9937C23.1987 14.7875 23.1987 14.55 23.2049 14.2812C23.2237 12.6875 23.2487 10.225 22.7986 9.09375C22.7111 8.875 22.6111 8.675 22.4798 8.48125C22.3548 8.2875 22.211 8.10625 22.0484 7.94375V7.95625C21.7234 7.63125 21.3295 7.375 20.8982 7.20625C20.8357 7.18125 20.7669 7.15625 20.6981 7.1375C19.4979 6.7625 17.2099 6.78125 15.7033 6.8C15.447 6.8 15.2094 6.80625 15.0031 6.80625C14.7968 6.80625 14.553 6.80625 14.2905 6.8C12.7839 6.78125 10.5021 6.75625 9.30185 7.1375C9.23308 7.15625 9.16432 7.18125 9.10806 7.20625C8.67671 7.375 8.28912 7.63125 7.9578 7.95625C7.62648 8.28125 7.37642 8.675 7.20763 9.10625C6.76378 10.2375 6.78879 12.7125 6.80129 14.3062C6.80129 14.5625 6.80754 14.8 6.80754 15C6.80754 15.2 6.80754 15.4375 6.80129 15.6938C6.78879 17.2875 6.76378 19.7625 7.20763 20.8937C7.37642 21.325 7.63273 21.7125 7.9578 22.0438C8.28287 22.375 8.67671 22.625 9.10806 22.7938C9.17057 22.8188 9.23934 22.8438 9.31435 22.8625C10.5209 23.2312 12.8026 23.2125 14.303 23.2C14.5593 23.2 14.7968 23.1938 15.0031 23.1938C15.2094 23.1938 15.4532 23.1938 15.7158 23.2C17.2224 23.2188 19.5041 23.2437 20.7044 22.8625C20.7732 22.8438 20.8419 22.8188 20.8982 22.7938C21.3295 22.625 21.7171 22.3688 22.0484 22.0438C22.3798 21.7188 22.6298 21.325 22.7986 20.8937C23.2487 19.7687 23.2237 17.3062 23.2049 15.7062C23.2049 15.4437 23.1987 15.2 23.1987 14.9937ZM10.7397 12.1562C12.315 9.8 15.497 9.16875 17.8538 10.7375H17.86C20.2168 12.3125 20.8482 15.4938 19.2728 17.85C17.6975 20.2063 14.5155 20.8375 12.1587 19.2625C9.79571 17.6875 9.16432 14.5063 10.7397 12.1562ZM21.4483 10.1125C21.392 10.2563 21.2983 10.3875 21.192 10.5C21.0857 10.6125 20.9482 10.7 20.8044 10.7625C20.6606 10.825 20.5043 10.8562 20.3481 10.8562C20.2293 10.8562 20.1105 10.8375 19.998 10.8062C19.8855 10.775 19.7792 10.725 19.6854 10.6562H19.6792C19.4854 10.525 19.3291 10.3375 19.2353 10.1187C19.1415 9.9 19.1228 9.6625 19.1665 9.425C19.2103 9.1875 19.3291 8.98125 19.4916 8.8125C19.6542 8.64375 19.873 8.53125 20.1043 8.4875C20.3356 8.44375 20.5794 8.4625 20.7982 8.55625C21.017 8.65 21.2045 8.8 21.3358 8.99375C21.4671 9.1875 21.5358 9.41875 21.5358 9.65625C21.5358 9.8125 21.5046 9.96875 21.4483 10.1125ZM18.3414 15C18.3414 14.3625 18.1601 13.7188 17.7787 13.15C16.7535 11.6187 14.6843 11.2063 13.1527 12.2312C11.6211 13.2562 11.2085 15.325 12.2338 16.8563C13.259 18.3875 15.3282 18.8 16.8598 17.775C17.8225 17.1313 18.3414 16.075 18.3414 15ZM17.7787 13.15C16.7535 11.6187 14.6843 11.2063 13.1527 12.2312C11.6211 13.2562 11.2085 15.325 12.2338 16.8563C13.259 18.3875 15.3282 18.8 16.8598 17.775C17.8225 17.1313 18.3414 16.075 18.3414 15C18.3414 14.3625 18.1601 13.7188 17.7787 13.15ZM17.7787 13.15C16.7535 11.6187 14.6843 11.2063 13.1527 12.2312C11.6211 13.2562 11.2085 15.325 12.2338 16.8563C13.259 18.3875 15.3282 18.8 16.8598 17.775C17.8225 17.1313 18.3414 16.075 18.3414 15C18.3414 14.3625 18.1601 13.7188 17.7787 13.15ZM17.7787 13.15C16.7535 11.6187 14.6843 11.2063 13.1527 12.2312C11.6211 13.2562 11.2085 15.325 12.2338 16.8563C13.259 18.3875 15.3282 18.8 16.8598 17.775C17.8225 17.1313 18.3414 16.075 18.3414 15C18.3414 14.3625 18.1601 13.7188 17.7787 13.15ZM17.7787 13.15C16.7535 11.6187 14.6843 11.2063 13.1527 12.2312C11.6211 13.2562 11.2085 15.325 12.2338 16.8563C13.259 18.3875 15.3282 18.8 16.8598 17.775C17.8225 17.1313 18.3414 16.075 18.3414 15C18.3414 14.3625 18.1601 13.7188 17.7787 13.15ZM17.7787 13.15C16.7535 11.6187 14.6843 11.2063 13.1527 12.2312C11.6211 13.2562 11.2085 15.325 12.2338 16.8563C13.259 18.3875 15.3282 18.8 16.8598 17.775C17.8225 17.1313 18.3414 16.075 18.3414 15C18.3414 14.3625 18.1601 13.7188 17.7787 13.15ZM17.7787 13.15C16.7535 11.6187 14.6843 11.2063 13.1527 12.2312C11.6211 13.2562 11.2085 15.325 12.2338 16.8563C13.259 18.3875 15.3282 18.8 16.8598 17.775C17.8225 17.1313 18.3414 16.075 18.3414 15C18.3414 14.3625 18.1601 13.7188 17.7787 13.15ZM23.1987 14.9937C23.1987 14.7875 23.1987 14.55 23.2049 14.2812C23.2237 12.6875 23.2487 10.225 22.7986 9.09375C22.7111 8.875 22.6111 8.675 22.4798 8.48125C22.3548 8.2875 22.211 8.10625 22.0484 7.94375V7.95625C21.7234 7.63125 21.3295 7.375 20.8982 7.20625C20.8357 7.18125 20.7669 7.15625 20.6981 7.1375C19.4979 6.7625 17.2099 6.78125 15.7033 6.8C15.447 6.8 15.2094 6.80625 15.0031 6.80625C14.7968 6.80625 14.553 6.80625 14.2905 6.8C12.7839 6.78125 10.5021 6.75625 9.30185 7.1375C9.23308 7.15625 9.16432 7.18125 9.10806 7.20625C8.67671 7.375 8.28912 7.63125 7.9578 7.95625C7.62648 8.28125 7.37642 8.675 7.20763 9.10625C6.76378 10.2375 6.78879 12.7125 6.80129 14.3062C6.80129 14.5625 6.80754 14.8 6.80754 15C6.80754 15.2 6.80754 15.4375 6.80129 15.6938C6.78879 17.2875 6.76378 19.7625 7.20763 20.8937C7.37642 21.325 7.63273 21.7125 7.9578 22.0438C8.28287 22.375 8.67671 22.625 9.10806 22.7938C9.17057 22.8188 9.23934 22.8438 9.31435 22.8625C10.5209 23.2312 12.8026 23.2125 14.303 23.2C14.5593 23.2 14.7968 23.1938 15.0031 23.1938C15.2094 23.1938 15.4532 23.1938 15.7158 23.2C17.2224 23.2188 19.5041 23.2437 20.7044 22.8625C20.7732 22.8438 20.8419 22.8188 20.8982 22.7938C21.3295 22.625 21.7171 22.3688 22.0484 22.0438C22.3798 21.7188 22.6298 21.325 22.7986 20.8937C23.2487 19.7687 23.2237 17.3062 23.2049 15.7062C23.2049 15.4437 23.1987 15.2 23.1987 14.9937ZM10.7397 12.1562C12.315 9.8 15.497 9.16875 17.8538 10.7375H17.86C20.2168 12.3125 20.8482 15.4938 19.2728 17.85C17.6975 20.2063 14.5155 20.8375 12.1587 19.2625C9.79571 17.6875 9.16432 14.5063 10.7397 12.1562ZM21.4483 10.1125C21.392 10.2563 21.2983 10.3875 21.192 10.5C21.0857 10.6125 20.9482 10.7 20.8044 10.7625C20.6606 10.825 20.5043 10.8562 20.3481 10.8562C20.2293 10.8562 20.1105 10.8375 19.998 10.8062C19.8855 10.775 19.7792 10.725 19.6854 10.6562H19.6792C19.4854 10.525 19.3291 10.3375 19.2353 10.1187C19.1415 9.9 19.1228 9.6625 19.1665 9.425C19.2103 9.1875 19.3291 8.98125 19.4916 8.8125C19.6542 8.64375 19.873 8.53125 20.1043 8.4875C20.3356 8.44375 20.5794 8.4625 20.7982 8.55625C21.017 8.65 21.2045 8.8 21.3358 8.99375C21.4671 9.1875 21.5358 9.41875 21.5358 9.65625C21.5358 9.8125 21.5046 9.96875 21.4483 10.1125ZM18.3414 15C18.3414 14.3625 18.1601 13.7188 17.7787 13.15C16.7535 11.6187 14.6843 11.2063 13.1527 12.2312C11.6211 13.2562 11.2085 15.325 12.2338 16.8563C13.259 18.3875 15.3282 18.8 16.8598 17.775C17.8225 17.1313 18.3414 16.075 18.3414 15ZM17.7787 13.15C16.7535 11.6187 14.6843 11.2063 13.1527 12.2312C11.6211 13.2562 11.2085 15.325 12.2338 16.8563C13.259 18.3875 15.3282 18.8 16.8598 17.775C17.8225 17.1313 18.3414 16.075 18.3414 15C18.3414 14.3625 18.1601 13.7188 17.7787 13.15ZM17.7787 13.15C16.7535 11.6187 14.6843 11.2063 13.1527 12.2312C11.6211 13.2562 11.2085 15.325 12.2338 16.8563C13.259 18.3875 15.3282 18.8 16.8598 17.775C17.8225 17.1313 18.3414 16.075 18.3414 15C18.3414 14.3625 18.1601 13.7188 17.7787 13.15Z" fill="#0B0B0B"/>
</svg>
