<svg width="30" height="30" viewBox="0 0 30 30" fill="none" xmlns="http://www.w3.org/2000/svg">
<path d="M18.0078 11.7625V16.2086C18.0078 16.3234 17.9203 16.4109 17.8055 16.4109H17.0945C17.0234 16.4109 16.9633 16.3727 16.9305 16.3289L14.8906 13.5781V16.2141C14.8906 16.3289 14.8031 16.4164 14.6883 16.4164H13.9774C13.8625 16.4164 13.775 16.3289 13.775 16.2141V11.768C13.775 11.6531 13.8625 11.5656 13.9774 11.5656H14.6828C14.743 11.5656 14.8141 11.5984 14.8469 11.6531L16.8867 14.4039V11.768C16.8867 11.6531 16.9742 11.5656 17.0891 11.5656H17.8C17.9149 11.5602 18.0078 11.6531 18.0078 11.757V11.7625ZM12.8836 11.5602H12.1727C12.0578 11.5602 11.9703 11.6477 11.9703 11.7625V16.2086C11.9703 16.3234 12.0578 16.4109 12.1727 16.4109H12.8836C12.9984 16.4109 13.0859 16.3234 13.0859 16.2086V11.7625C13.0859 11.6586 12.9984 11.5602 12.8836 11.5602ZM11.1664 15.2844H9.21954V11.7625C9.21954 11.6477 9.13204 11.5602 9.0172 11.5602H8.30626C8.19142 11.5602 8.10392 11.6477 8.10392 11.7625V16.2086C8.10392 16.2633 8.12032 16.307 8.1586 16.3453C8.19688 16.3781 8.24063 16.4 8.29532 16.4H11.15C11.2649 16.4 11.3524 16.3125 11.3524 16.1977V15.4867C11.3524 15.3828 11.2649 15.2844 11.1609 15.2844H11.1664ZM21.7594 11.5602H18.8992C18.7953 11.5602 18.6969 11.6477 18.6969 11.7625V16.2086C18.6969 16.3125 18.7844 16.4109 18.8992 16.4109H21.7539C21.8688 16.4109 21.9563 16.3234 21.9563 16.2086V15.4922C21.9563 15.3774 21.8688 15.2899 21.7539 15.2899H19.8125V14.5461H21.7539C21.8688 14.5461 21.9563 14.4586 21.9563 14.3438V13.6274C21.9563 13.5125 21.8688 13.425 21.7539 13.425H19.8125V12.6758H21.7539C21.8688 12.6758 21.9563 12.5883 21.9563 12.4734V11.7625C21.9508 11.6586 21.8633 11.5602 21.7539 11.5602H21.7594ZM29 6.10782V23.9359C28.9945 26.7359 26.6977 29.0055 23.8922 29H6.06407C3.26407 28.9945 0.994541 26.6922 1.00001 23.8922V6.06407C1.00548 3.26407 3.30782 0.994541 6.10782 1.00001H23.9359C26.7359 1.00548 29.0055 3.30235 29 6.10782ZM25.15 13.7695C25.15 9.2086 20.5727 5.49532 14.9563 5.49532C9.33985 5.49532 4.76251 9.2086 4.76251 13.7695C4.76251 17.8547 8.38829 21.2836 13.2883 21.9344C14.4805 22.1914 14.3438 22.6289 14.0758 24.2367C14.032 24.4938 13.868 25.243 14.9563 24.7891C16.0445 24.3352 20.8242 21.3328 22.968 18.8719C24.4445 17.2477 25.15 15.6016 25.15 13.7805V13.7695Z" fill="#0B0B0B"/>
</svg>
