<svg width="28" height="28" viewBox="0 0 28 28" fill="none" xmlns="http://www.w3.org/2000/svg">
<path d="M22.9426 0H5.09488C2.30051 0 0.00625139 2.26875 0 5.0625V22.9C0 25.6938 2.26926 27.9937 5.06363 28H22.9051C25.7057 28 28 25.7313 28 22.9375V5.1C28.0062 2.3 25.737 0.00625 22.9426 0ZM6.38892 4C7.6142 4 8.63317 4.925 8.77695 6.1125C8.78946 6.20625 8.79571 6.30625 8.79571 6.40625C8.79571 7.7375 7.72047 8.8125 6.38892 8.8125C5.26992 8.8125 4.33221 8.05 4.06341 7.01875C4.01339 6.825 3.98214 6.61875 3.98214 6.40625C3.98214 5.08125 5.05738 4 6.38892 4ZM8.47064 24H4.31346V10.6375H8.47064V24ZM24.0241 24H19.8732V17.5C19.8732 15.95 19.8419 13.9563 17.7164 13.9563C15.5535 13.9563 15.2221 15.6438 15.2221 17.3875V24H11.0712V10.6375H15.0534V12.4625H15.1096C15.666 11.4125 17.0225 10.3062 19.0417 10.3062C23.2427 10.3062 24.0241 13.075 24.0241 16.675V24Z" fill="#0B0B0B"/>
</svg>
