<svg width="30" height="30" viewBox="0 0 30 30" fill="none" xmlns="http://www.w3.org/2000/svg">
<path fill-rule="evenodd" clip-rule="evenodd" d="M23.9416 0.999512H6.09391C3.29954 0.999512 1.00527 3.26826 0.999023 6.06201V23.8995C0.999023 26.6933 3.26828 28.9933 6.06265 28.9995H23.9041C26.7048 28.9995 28.999 26.7308 28.999 23.937V6.09951C29.0053 3.29951 26.736 1.00576 23.9416 0.999512ZM25 10.2273V10.3708L15.7487 15.8051C15.2896 16.0748 14.7104 16.0748 14.2513 15.8051L5 10.3708V10.2273C5 8.72104 6.27919 7.5 7.85714 7.5H22.1429C23.7208 7.5 25 8.72104 25 10.2273ZM5 19.7727V11.9719L13.5026 16.9664C14.4209 17.5059 15.5791 17.5059 16.4974 16.9664L25 11.9719V19.7727C25 21.279 23.7208 22.5 22.1429 22.5H7.85714C6.27919 22.5 5 21.279 5 19.7727Z" fill="#0B0B0B"/>
</svg>
