<svg width="30" height="30" viewBox="0 0 30 30" fill="none" xmlns="http://www.w3.org/2000/svg">
<path fill-rule="evenodd" clip-rule="evenodd" d="M23.9416 0.999512H6.09391C3.29954 0.999512 1.00527 3.26826 0.999023 6.06201V23.8995C0.999023 26.6933 3.26828 28.9933 6.06265 28.9995H23.9041C26.7048 28.9995 28.999 26.7308 28.999 23.937V6.09951C29.0053 3.29951 26.736 1.00576 23.9416 0.999512ZM7.85714 5C6.27919 5 5 6.27919 5 7.85714V10C5 18.2843 11.7157 25 20 25H22.1429C23.7208 25 25 23.7208 25 22.1429V20.8365C25 20.0171 24.4423 19.3029 23.6474 19.1041L19.4348 18.051C18.7378 17.8768 18.0042 18.1372 17.5732 18.712L16.6491 19.944C16.5532 20.0719 16.4127 20.0997 16.3146 20.0638C13.3624 18.9824 11.0176 16.6376 9.93619 13.6854C9.90025 13.5873 9.92807 13.4468 10.056 13.3509L11.288 12.4268C11.8628 11.9958 12.1232 11.2622 11.949 10.5652L10.8959 6.35261C10.6971 5.55767 9.98286 5 9.16345 5H7.85714Z" fill="#0B0B0B"/>
</svg>
