<svg width="30" height="30" viewBox="0 0 30 30" fill="none" xmlns="http://www.w3.org/2000/svg">
<path d="M23.8301 1H6.06991C3.28924 1 1.00622 3.26875 1 6.0625V23.9C1 26.6938 3.25813 28.9937 6.03881 29H23.7928C26.5797 29 28.8627 26.7313 28.8627 23.9375V6.1C28.869 3.3 26.6108 1.00625 23.8301 1ZM12.5022 25.1812C10.4618 25.1812 8.63908 24.225 7.46336 22.7375C6.58623 21.6312 6.06369 20.2312 6.06369 18.7125C6.06369 15.1375 8.95012 12.2437 12.5084 12.2437C12.807 12.2437 13.0994 12.2625 13.3917 12.3062V15.8813C11.8365 15.3875 10.1756 16.2563 9.68417 17.8188C9.19273 19.3813 10.0574 21.05 11.6126 21.5438C13.1678 22.0375 14.8287 21.1688 15.3202 19.6063C15.4135 19.3188 15.457 19.0187 15.457 18.7188V4.8125H18.9406C18.9406 5.10625 18.9655 5.40625 19.0153 5.69375C19.1086 6.1875 19.2766 6.65625 19.5005 7.0875C19.5752 7.23125 19.6622 7.375 19.7556 7.5125C20.1164 8.05625 20.5891 8.525 21.149 8.8875C21.939 9.4125 22.8597 9.6875 23.8053 9.6875V13.1625C22.0635 13.1688 20.359 12.6188 18.9406 11.6V18.7125C18.9406 20.3438 18.3372 21.8375 17.3481 22.975C16.1662 24.325 14.4306 25.1812 12.5022 25.1812Z" fill="#0B0B0B"/>
</svg>
