<svg width="30" height="30" viewBox="0 0 30 30" fill="none" xmlns="http://www.w3.org/2000/svg">
<path d="M10.5896 7.93125H8.82049L19.5604 21.975H21.2108L10.5896 7.93125ZM10.5896 7.93125H8.82049L19.5604 21.975H21.2108L10.5896 7.93125ZM10.5896 7.93125H8.82049L19.5604 21.975H21.2108L10.5896 7.93125ZM10.5896 7.93125H8.82049L19.5604 21.975H21.2108L10.5896 7.93125ZM23.9426 1H6.09488C3.30051 1 1.00625 3.26875 1 6.0625V23.9C1 26.6938 3.26926 28.9937 6.06363 29H23.9051C26.7057 29 29 26.7313 29 23.9375V6.1C29.0062 3.3 26.737 1.00625 23.9426 1ZM18.7415 23.75L18.1351 22.9562L14.0654 17.6313L9.47689 22.875L8.70797 23.75H5.73856L6.70752 22.6437L12.6776 15.8188L6.26992 7.44375L5.35722 6.25H11.4836L12.0775 7.0375L15.7158 11.8438L19.8605 7.1L20.6044 6.25H23.5738L22.6673 7.28125L17.0848 13.6625L23.8051 22.5438L24.7178 23.75H18.7415ZM8.82049 7.93125L19.5604 21.975H21.2108L10.5896 7.93125H8.82049ZM10.5896 7.93125H8.82049L19.5604 21.975H21.2108L10.5896 7.93125ZM10.5896 7.93125H8.82049L19.5604 21.975H21.2108L10.5896 7.93125ZM10.5896 7.93125H8.82049L19.5604 21.975H21.2108L10.5896 7.93125ZM10.5896 7.93125H8.82049L19.5604 21.975H21.2108L10.5896 7.93125Z" fill="#0B0B0B"/>
</svg>
