<svg width="30" height="30" viewBox="0 0 30 30" fill="none" xmlns="http://www.w3.org/2000/svg">
<path d="M12.6775 11.6309L18.6288 15.0121L12.6775 18.3934V11.6309Z" fill="#0B0B0B"/>
<path d="M23.9426 1H6.09488C3.30051 1 1.00625 3.26875 1 6.0625V23.9C1 26.6938 3.26926 28.9937 6.06363 29H23.9051C26.7057 29 29 26.7313 29 23.9375V6.1C29.0062 3.3 26.737 1.00625 23.9426 1ZM25.9055 20.525C25.643 21.5125 24.8741 22.2562 23.8926 22.5187C22.1235 23 15.0031 23 15.0031 23C15.0031 23 7.88278 23 6.11364 22.525C5.13217 22.2625 4.36325 21.5187 4.10069 20.5312C3.62559 18.7437 3.62558 15.0187 3.62558 15.0187C3.62558 15.0187 3.62559 11.2875 4.10069 9.50625C4.36325 8.51875 5.13217 7.74375 6.11364 7.48125C7.88278 7 15.0031 7 15.0031 7C15.0031 7 22.1235 7 23.8926 7.48125C24.8741 7.74375 25.643 8.51875 25.9055 9.50625C26.3807 11.2938 26.3807 15.0187 26.3807 15.0187C26.3807 15.0187 26.3807 18.7437 25.9055 20.525Z" fill="#0B0B0B"/>
</svg>
