<svg width="52" height="52" viewBox="0 0 52 52" fill="none" xmlns="http://www.w3.org/2000/svg">
<g id="Social Media" filter="url(#filter0_d_2388_11603)">
<rect id="Logo Container" x="4" y="2" width="44" height="44" rx="22" fill="url(#paint0_radial_2388_11603)"/>
<g id="Vector">
<path d="M26.0593 13.0526C19.8599 13.0526 15.0527 17.5956 15.0527 23.729C15.0527 26.9375 16.368 29.7111 18.5088 31.6263C18.6877 31.7859 18.7977 32.0115 18.8032 32.2537L18.8638 34.2128C18.8682 34.357 18.9079 34.4978 18.9795 34.623C19.0511 34.7482 19.1524 34.8539 19.2744 34.9308C19.3964 35.0077 19.5354 35.0535 19.6792 35.0641C19.8231 35.0747 19.9673 35.0498 20.0993 34.9915L22.2841 34.0285C22.4684 33.9459 22.6776 33.9322 22.8729 33.9844C23.8773 34.2596 24.9449 34.4082 26.0593 34.4082C32.2588 34.4082 37.0659 29.8652 37.0659 23.7318C37.0659 17.5984 32.2588 13.0526 26.0593 13.0526Z" fill="white"/>
<path d="M19.4499 26.8522L22.6831 21.7231C22.8047 21.53 22.965 21.3642 23.154 21.2362C23.3429 21.1082 23.5563 21.0207 23.7808 20.9793C24.0052 20.938 24.2358 20.9436 24.4579 20.9958C24.6801 21.0481 24.889 21.1458 25.0715 21.2828L27.6443 23.2117C27.7591 23.2977 27.8989 23.344 28.0424 23.3435C28.1858 23.343 28.3252 23.2958 28.4395 23.209L31.9121 20.5729C32.3744 20.2207 32.9797 20.7765 32.6715 21.2691L29.4356 26.3954C29.314 26.5885 29.1536 26.7543 28.9647 26.8823C28.7758 27.0103 28.5623 27.0978 28.3379 27.1391C28.1135 27.1805 27.8829 27.1749 27.6607 27.1227C27.4386 27.0704 27.2297 26.9727 27.0472 26.8357L24.4744 24.9067C24.3595 24.8208 24.2198 24.7745 24.0763 24.775C23.9328 24.7755 23.7934 24.8227 23.6792 24.9095L20.2066 27.5456C19.7443 27.8978 19.1389 27.3447 19.4499 26.8522Z" fill="url(#paint1_radial_2388_11603)"/>
</g>
</g>
<defs>
<filter id="filter0_d_2388_11603" x="0" y="0" width="52" height="52" filterUnits="userSpaceOnUse" color-interpolation-filters="sRGB">
<feFlood flood-opacity="0" result="BackgroundImageFix"/>
<feColorMatrix in="SourceAlpha" type="matrix" values="0 0 0 0 0 0 0 0 0 0 0 0 0 0 0 0 0 0 127 0" result="hardAlpha"/>
<feOffset dy="2"/>
<feGaussianBlur stdDeviation="2"/>
<feComposite in2="hardAlpha" operator="out"/>
<feColorMatrix type="matrix" values="0 0 0 0 0 0 0 0 0 0 0 0 0 0 0 0 0 0 0.1 0"/>
<feBlend mode="normal" in2="BackgroundImageFix" result="effect1_dropShadow_2388_11603"/>
<feBlend mode="normal" in="SourceGraphic" in2="effect1_dropShadow_2388_11603" result="shape"/>
</filter>
<radialGradient id="paint0_radial_2388_11603" cx="0" cy="0" r="1" gradientUnits="userSpaceOnUse" gradientTransform="translate(11.37 45.9988) scale(48.4 48.3987)">
<stop stop-color="#0099FF"/>
<stop offset="0.6" stop-color="#A033FF"/>
<stop offset="0.9" stop-color="#FF5280"/>
<stop offset="1" stop-color="#FF7061"/>
</radialGradient>
<radialGradient id="paint1_radial_2388_11603" cx="0" cy="0" r="1" gradientUnits="userSpaceOnUse" gradientTransform="translate(18.7399 35.0658) scale(24.2145)">
<stop stop-color="#0099FF"/>
<stop offset="0.6" stop-color="#A033FF"/>
<stop offset="0.9" stop-color="#FF5280"/>
<stop offset="1" stop-color="#FF7061"/>
</radialGradient>
</defs>
</svg>
