<svg width="24" height="24" viewBox="0 0 24 24" fill="none" xmlns="http://www.w3.org/2000/svg">
<path d="M16 2H8C5.79086 2 4 3.79086 4 6V14C4 15.259 4.59278 16.4446 5.6 17.2L9.6 20.2C11.0222 21.2667 12.9778 21.2667 14.4 20.2L18.4 17.2C19.4072 16.4446 20 15.259 20 14V6C20 3.79086 18.2091 2 16 2Z" fill="#3E7ADB" stroke="#3E7ADB" stroke-width="2" stroke-linecap="round"/>
<path d="M9 12.2804C9 12.162 9.01927 12.0547 9.05781 11.9583C9.0991 11.8592 9.15553 11.7753 9.2271 11.7065C9.29867 11.6349 9.38263 11.5798 9.47898 11.5413C9.57533 11.5 9.68131 11.4794 9.79692 11.4794C9.92355 11.4794 10.0268 11.4986 10.1066 11.5372C10.1892 11.5757 10.2594 11.628 10.3172 11.6941C10.375 11.7574 10.4245 11.8303 10.4658 11.9129C10.5071 11.9927 10.5512 12.0753 10.598 12.1607C10.6448 12.246 10.6971 12.33 10.7549 12.4125C10.8154 12.4924 10.8911 12.5653 10.982 12.6314C11.0728 12.6947 11.1843 12.7456 11.3164 12.7842C11.4513 12.8227 11.6151 12.842 11.8078 12.842C12.017 12.842 12.2001 12.8131 12.357 12.7553C12.5139 12.6974 12.6446 12.6162 12.7492 12.5116C12.8539 12.407 12.9309 12.2818 12.9805 12.1359C13.0328 11.99 13.0589 11.829 13.0589 11.6528C13.0589 11.5179 13.0438 11.3926 13.0135 11.277C12.986 11.1587 12.9364 11.0554 12.8649 10.9673C12.7933 10.8765 12.6942 10.8022 12.5676 10.7444C12.4409 10.6866 12.2813 10.6466 12.0886 10.6246C12.0088 10.6164 11.9152 10.6054 11.8078 10.5916C11.7032 10.5751 11.6027 10.5462 11.5064 10.5049C11.41 10.4636 11.3275 10.4044 11.2586 10.3273C11.1926 10.2503 11.1595 10.1456 11.1595 10.0135C11.1595 9.86486 11.1802 9.74374 11.2215 9.65015C11.2628 9.55656 11.3247 9.48223 11.4073 9.42718C11.4899 9.37212 11.5917 9.33221 11.7128 9.30743C11.834 9.28266 11.9743 9.26614 12.134 9.25788C12.4148 9.24137 12.6199 9.15465 12.7492 8.99775C12.8814 8.84084 12.9474 8.63163 12.9474 8.37012C12.9474 8.19945 12.9185 8.05355 12.8607 7.93243C12.8057 7.81131 12.7286 7.71221 12.6295 7.63514C12.5304 7.55531 12.4148 7.4975 12.2827 7.46171C12.1533 7.42593 12.0143 7.40803 11.8656 7.40803C11.6454 7.40803 11.4651 7.43969 11.3247 7.503C11.1843 7.56356 11.0673 7.64064 10.9737 7.73423C10.8801 7.82783 10.8003 7.92968 10.7342 8.03979C10.6709 8.14715 10.6035 8.24762 10.5319 8.34122C10.4631 8.43481 10.3833 8.51326 10.2924 8.57658C10.2016 8.63714 10.0818 8.66742 9.93318 8.66742C9.83684 8.66742 9.74187 8.65365 9.64827 8.62613C9.55468 8.5986 9.47072 8.55593 9.3964 8.49812C9.32207 8.44032 9.26426 8.36874 9.22297 8.28341C9.18168 8.19807 9.16792 8.0976 9.18168 7.98198C9.2037 7.76176 9.25876 7.56081 9.34685 7.37913C9.43769 7.19469 9.55055 7.02953 9.68544 6.88363C9.82307 6.73498 9.9786 6.60561 10.152 6.4955C10.3282 6.38539 10.5126 6.29317 10.7053 6.21884C10.898 6.14452 11.0962 6.08946 11.2999 6.05368C11.5036 6.01789 11.7032 6 11.8986 6C12.3859 6.00275 12.7974 6.06744 13.1333 6.19407C13.4718 6.3207 13.7471 6.48724 13.9591 6.69369C14.171 6.90015 14.3238 7.13689 14.4174 7.4039C14.5138 7.66817 14.5619 7.93794 14.5619 8.21321C14.5619 8.57933 14.4821 8.89314 14.3224 9.15465C14.1628 9.41617 13.9247 9.63363 13.6081 9.80706C13.8173 9.86762 13.9976 9.95433 14.149 10.0672C14.3032 10.1801 14.4284 10.3136 14.5248 10.4677C14.6211 10.6219 14.6927 10.7939 14.7395 10.9839C14.7863 11.171 14.8097 11.372 14.8097 11.5867C14.8097 12.0382 14.7299 12.4304 14.5702 12.7635C14.4105 13.0966 14.1931 13.3732 13.9178 13.5935C13.6425 13.8137 13.3204 13.9789 12.9516 14.089C12.5827 14.1963 12.1904 14.25 11.7748 14.25C11.4224 14.25 11.1086 14.2156 10.8333 14.1468C10.5608 14.0807 10.3213 13.9926 10.1149 13.8825C9.91116 13.7696 9.73774 13.643 9.59459 13.5026C9.4542 13.3622 9.33996 13.2191 9.25188 13.0732C9.16379 12.9273 9.0991 12.7855 9.05781 12.6479C9.01927 12.5103 9 12.3878 9 12.2804Z" fill="#FFD179"/>
</svg>
