<svg width="24" height="24" viewBox="0 0 24 24" fill="none" xmlns="http://www.w3.org/2000/svg">
<path d="M16 2H8C5.79086 2 4 3.79086 4 6V14C4 15.259 4.59278 16.4446 5.6 17.2L9.6 20.2C11.0222 21.2667 12.9778 21.2667 14.4 20.2L18.4 17.2C19.4072 16.4446 20 15.259 20 14V6C20 3.79086 18.2091 2 16 2Z" fill="#3E7ADB" stroke="#3E7ADB" stroke-width="2" stroke-linecap="round"/>
<path d="M14.5117 12.5327C14.7995 12.5327 15.007 12.606 15.1343 12.7527C15.2643 12.8993 15.3293 13.1055 15.3293 13.3711C15.3293 13.6367 15.2643 13.8429 15.1343 13.9895C15.007 14.1361 14.7995 14.2095 14.5117 14.2095H9.81763C9.69035 14.2095 9.57552 14.1873 9.47314 14.1431C9.37354 14.096 9.28776 14.0338 9.21582 13.9563C9.14665 13.8788 9.09269 13.7903 9.05396 13.6907C9.01799 13.5911 9 13.4873 9 13.3794C9 13.2715 9.01107 13.1663 9.0332 13.064C9.05534 12.9616 9.09546 12.8564 9.15356 12.7485C9.21167 12.6379 9.29329 12.5216 9.39844 12.3999C9.50358 12.2754 9.63778 12.1384 9.80103 11.989C9.96704 11.8368 10.1676 11.6681 10.4028 11.4827C10.638 11.2973 10.9161 11.087 11.2371 10.8518C11.5248 10.6471 11.7725 10.4644 11.98 10.304C12.1875 10.1407 12.3632 9.99406 12.5071 9.86401C12.6537 9.73397 12.7713 9.61776 12.8599 9.51538C12.9484 9.41024 13.0162 9.31201 13.0632 9.2207C13.113 9.12663 13.1462 9.0367 13.1628 8.95093C13.1794 8.86515 13.1877 8.77523 13.1877 8.68115C13.1877 8.50684 13.1601 8.35189 13.1047 8.21631C13.0522 8.08073 12.9747 7.9659 12.8723 7.87183C12.7699 7.77498 12.6468 7.70166 12.5029 7.65186C12.359 7.60205 12.1958 7.57715 12.0132 7.57715C11.8499 7.57715 11.7088 7.60482 11.5898 7.66016C11.4736 7.71273 11.3726 7.78328 11.2869 7.87183C11.2039 7.96037 11.1333 8.06136 11.0752 8.1748C11.0171 8.28825 10.9659 8.40446 10.9216 8.52344C10.8884 8.61475 10.8497 8.7019 10.8054 8.78491C10.7639 8.86515 10.71 8.93709 10.6436 9.00073C10.5799 9.0616 10.5011 9.11141 10.407 9.15015C10.3129 9.18612 10.1981 9.2041 10.0625 9.2041C9.88265 9.2041 9.73047 9.18058 9.60596 9.13354C9.48421 9.08374 9.3846 9.01457 9.30713 8.92603C9.23242 8.83748 9.17708 8.73234 9.14111 8.6106C9.10791 8.48885 9.09131 8.35466 9.09131 8.20801C9.09131 8.03092 9.11898 7.85384 9.17432 7.67676C9.23242 7.49691 9.3182 7.32536 9.43164 7.16211C9.54508 6.99609 9.68481 6.84253 9.85083 6.70142C10.0196 6.5603 10.2147 6.43856 10.436 6.33618C10.6574 6.23104 10.905 6.14941 11.179 6.09131C11.4556 6.03044 11.7572 6 12.0837 6C12.4739 6 12.8225 6.03459 13.1296 6.10376C13.4395 6.17293 13.7107 6.26839 13.9431 6.39014C14.1783 6.50911 14.3775 6.65023 14.5408 6.81348C14.7068 6.97673 14.841 7.15381 14.9434 7.34473C15.0485 7.53288 15.1246 7.73071 15.1716 7.93823C15.2187 8.14575 15.2422 8.35327 15.2422 8.56079C15.2422 8.79045 15.2214 9.00627 15.1799 9.20825C15.1412 9.41024 15.0748 9.60254 14.9807 9.78516C14.8894 9.96777 14.7677 10.1435 14.6155 10.3123C14.4633 10.481 14.2751 10.6498 14.051 10.8186L11.7517 12.5327H14.5117Z" fill="#FFD179"/>
</svg>
