<svg width="24" height="24" viewBox="0 0 24 24" fill="none" xmlns="http://www.w3.org/2000/svg">
<path d="M16 2H8C5.79086 2 4 3.79086 4 6V14C4 15.259 4.59278 16.4446 5.6 17.2L9.6 20.2C11.0222 21.2667 12.9778 21.2667 14.4 20.2L18.4 17.2C19.4072 16.4446 20 15.259 20 14V6C20 3.79086 18.2091 2 16 2Z" fill="#3E7ADB" stroke="#3E7ADB" stroke-width="2" stroke-linecap="round"/>
<path d="M11.0876 8.76001C10.9659 8.82088 10.8428 8.8693 10.7183 8.90527C10.5938 8.93848 10.4692 8.96476 10.3447 8.98413C10.223 9.00073 10.1054 9.0118 9.99194 9.01733C9.8785 9.02287 9.77474 9.02563 9.68066 9.02563C9.44824 9.02563 9.27669 8.9703 9.16602 8.85962C9.05534 8.74894 9 8.58846 9 8.37817C9 8.2592 9.01245 8.16097 9.03735 8.0835C9.06502 8.00326 9.11483 7.93547 9.18677 7.88013C9.25871 7.82479 9.35693 7.77913 9.48145 7.74316C9.60872 7.70443 9.77336 7.66846 9.97534 7.63525C10.1663 7.60205 10.3337 7.5564 10.4775 7.49829C10.6242 7.43742 10.7542 7.36825 10.8677 7.29077C10.9839 7.21053 11.0863 7.12199 11.1748 7.02515C11.2661 6.9283 11.3519 6.82454 11.4321 6.71387C11.5151 6.59766 11.5912 6.49528 11.6604 6.40674C11.7323 6.3182 11.8029 6.24349 11.8721 6.18262C11.944 6.12174 12.0187 6.07609 12.0962 6.04565C12.1737 6.01522 12.2594 6 12.3535 6C12.597 6 12.7852 6.05119 12.918 6.15356C13.0508 6.25594 13.1172 6.41642 13.1172 6.63501V13.2964C13.1172 13.4679 13.0923 13.6174 13.0425 13.7446C12.9927 13.8691 12.9221 13.9729 12.8308 14.0559C12.7423 14.1389 12.6357 14.1998 12.5112 14.2385C12.3867 14.28 12.2498 14.3008 12.1003 14.3008C11.9537 14.3008 11.8181 14.28 11.6936 14.2385C11.5691 14.1998 11.4612 14.1389 11.3699 14.0559C11.2813 13.9729 11.2122 13.8691 11.1624 13.7446C11.1125 13.6174 11.0876 13.4679 11.0876 13.2964V8.76001Z" fill="#FFD179"/>
</svg>
