<?xml version="1.0" encoding="UTF-8"?>
<svg id="Layer_1" data-name="Layer 1" xmlns="http://www.w3.org/2000/svg" viewBox="0 0 31.88 32">
  <defs>
    <style>
      .cls-1 {
        fill: #2e3191;
      }

      .cls-1, .cls-2 {
        stroke-width: 0px;
      }

      .cls-2 {
        fill: #fff;
      }
    </style>
  </defs>
  <circle class="cls-1" cx="15.99" cy="16" r="15.99"/>
  <g>
    <path class="cls-2" d="m8.61,17.29c0,.4-.03.76-.09,1.04-.06.27-.15.49-.28.66-.13.17-.29.28-.5.36-.22.08-.5.13-.83.13,0,0,0,0,0,0-.28,0-.51-.04-.69-.13-.18-.08-.32-.19-.43-.35-.11-.16-.2-.35-.25-.58-.05-.25-.08-.53-.08-.85v-2.73c0-.25-.01-.46-.04-.62-.03-.19-.09-.34-.19-.47-.1-.13-.24-.22-.4-.26-.13-.03-.29-.05-.48-.05h-1.11v.69h.44c.27,0,.31.08.33.12.06.14.1.35.1.59v2.45c0,.48.04.91.13,1.29.09.39.24.72.45.99.22.27.5.48.86.61.35.13.76.19,1.26.19s.95-.06,1.3-.19c.36-.13.65-.34.86-.61.2-.26.35-.6.43-.99.07-.37.11-.8.11-1.28v-3.85h-.88v3.85Z"/>
    <path class="cls-2" d="m11.08,13.75c-.13.06-.25.14-.33.23-.08.1-.14.21-.17.34-.03.11-.04.22-.04.33v.94h.67v-.24c0-.3.07-.5.21-.62.15-.13.39-.2.7-.2h.59v5.74h1.32v-5.74h2.08v-.86h-4.55c-.19,0-.35.03-.49.08Z"/>
    <path class="cls-2" d="m21.42,18.38c-.23.38-.48.67-.77.86-.28.19-.6.28-1,.28-.33,0-.61-.07-.84-.2-.24-.14-.42-.32-.57-.54-.15-.23-.27-.49-.34-.79-.07-.3-.11-.62-.11-.94,0-.51.05-.95.16-1.29.1-.33.24-.6.41-.8.17-.2.36-.34.58-.42.23-.09.47-.13.72-.13.43,0,.76.12,1.02.35.26.24.44.63.54,1.17l.04.19h.61v-.24c0-.27,0-.54-.03-.79-.02-.3-.1-.54-.25-.71-.19-.23-.47-.42-.86-.58-.38-.15-.83-.23-1.34-.23-.41,0-.8.09-1.16.28-.36.18-.67.44-.94.75-.26.31-.47.68-.62,1.11-.15.42-.23.87-.23,1.35s.07.88.2,1.28c.14.4.33.76.59,1.06.26.3.57.54.94.72.37.17.78.26,1.23.26.28,0,.54-.03.79-.08.26-.05.5-.15.71-.28.22-.13.42-.3.61-.51.19-.21.36-.46.51-.76l.09-.18-.54-.42-.14.23Z"/>
    <path class="cls-2" d="m28.16,18.15l-.14.23h0c-.23.38-.49.67-.77.87-.28.19-.6.28-1,.28-.33,0-.61-.07-.84-.2-.24-.14-.43-.32-.57-.54-.15-.23-.27-.5-.34-.79-.07-.31-.11-.62-.11-.94,0-.51.05-.95.16-1.29.1-.33.24-.6.41-.8.17-.2.36-.33.58-.42.23-.09.47-.13.73-.13.43,0,.76.12,1.02.35.26.24.44.63.54,1.17l.04.2h.61v-.24c0-.28,0-.55-.03-.79-.02-.3-.1-.53-.25-.71-.19-.23-.47-.42-.86-.58-.38-.15-.83-.23-1.34-.23-.41,0-.8.09-1.16.28-.36.18-.67.44-.94.76-.26.31-.47.69-.62,1.11-.15.42-.23.87-.23,1.35s.07.88.2,1.28c.13.4.33.76.59,1.06.26.3.57.54.94.72.37.17.78.26,1.23.26.28,0,.54-.03.79-.08.26-.05.5-.15.71-.28.22-.13.42-.3.61-.51.19-.21.36-.46.51-.76l.09-.18-.54-.42Z"/>
  </g>
</svg>