<?xml version="1.0" encoding="UTF-8"?>
<svg id="Layer_1" data-name="Layer 1" xmlns="http://www.w3.org/2000/svg" xmlns:xlink="http://www.w3.org/1999/xlink" viewBox="0 0 180 180">
  <defs>
    <style>
      .cls-1 {
        fill: #ffc609;
      }

      .cls-1, .cls-2, .cls-3, .cls-4, .cls-5, .cls-6, .cls-7, .cls-8, .cls-9, .cls-10 {
        stroke-width: 0px;
      }

      .cls-2 {
        fill: #2e3191;
      }

      .cls-3 {
        fill: none;
        stroke: #231f20;
      }

      .cls-4 {
        fill: url(#GradientFill_1-2);
      }

      .cls-4, .cls-5, .cls-6, .cls-7, .cls-8 {
        fill-rule: evenodd;
      }

      .cls-5 {
        fill: url(#GradientFill_1);
      }

      .cls-6 {
        fill: url(#GradientFill_1-4);
      }

      .cls-7 {
        fill: url(#GradientFill_1-5);
      }

      .cls-8 {
        fill: url(#GradientFill_1-3);
      }

      .cls-9 {
        fill: #00b1ea;
      }

      .cls-10 {
        fill: #aed6f2;
      }
    </style>
    <linearGradient id="GradientFill_1" data-name="GradientFill 1" x1="51.05" y1="36.96" x2="107.68" y2="36.96" gradientUnits="userSpaceOnUse">
      <stop offset="0" stop-color="#fff100"/>
      <stop offset=".18" stop-color="#fff100"/>
      <stop offset="1" stop-color="#f58a33"/>
    </linearGradient>
    <linearGradient id="GradientFill_1-2" data-name="GradientFill 1" x1="71.55" y1="48.02" x2="92.76" y2="48.02" xlink:href="#GradientFill_1"/>
    <linearGradient id="GradientFill_1-3" data-name="GradientFill 1" x1="59.73" y1="76.7" x2="137.89" y2="76.7" xlink:href="#GradientFill_1"/>
    <linearGradient id="GradientFill_1-4" data-name="GradientFill 1" x1="94.56" y1="47.78" x2="140.78" y2="47.78" xlink:href="#GradientFill_1"/>
    <linearGradient id="GradientFill_1-5" data-name="GradientFill 1" x1="75.12" y1="92.21" x2="117.13" y2="92.21" xlink:href="#GradientFill_1"/>
  </defs>
  <path class="cls-1" d="M95.94,17.32c-3.75,0-3.94-4.13-3.94-4.13-.08.42-.63,4.11-3.75,4.11-2.01,0-3.85-1.23-4-3.76-.09-1.57,1.13-2.83,1.15-2.87-.12-.01-1.56-1.01-6.02-.57-3.87.65-6.94,2.9-10.04,5.11-2.97,2.07-5.8,4.13-8.66,6.33-4.37,3.34-7.65,6.18-12.25,9.21-4.34,2.84-8.53,5.33-13.27,7.35-1.62.68-4.06,1.48-5.67,2,.03.22-.05.93-.05,1.13.19,12.62,1.49,24.98,4.25,37.18,2.89,12.54,7.12,24.55,12.75,36.01,5.41,11.02,12.05,20.95,20.07,30.44,7.47,8.87,15.86,16.28,25.51,23.2,9.65-6.92,17.69-13.93,25.15-22.8.12-.16.36-.45.49-.61,7.83-9.35,14.54-19.46,19.87-30.32,5.63-11.46,9.79-23.38,12.68-35.92,2.79-12.4,4.29-25.28,4.44-38.09-1.65-.52-2.82-.88-4.44-1.58-4.74-2.01-9.34-4.37-13.66-7.22-4.62-3.06-8.97-6.57-13.36-9.93-2.82-2.17-5.63-4.24-8.58-6.32-3.09-2.2-5.96-4.44-9.82-5.08-3.8-.64-5.54.38-6.15.5,0,.03,1.06.98,1.06,2.45.37,1.32-.89,4.18-3.75,4.18Z"/>
  <path class="cls-2" d="M35.37,78.06c2.78,12.14,6.88,23.9,12.31,34.97,5.26,10.66,11.74,20.74,19.47,29.91,7.23,8.56,15.53,16.32,24.84,23,9.34-6.67,17.67-14.44,24.87-23,.12-.17.24-.3.39-.45h0c7.54-9.03,13.94-18.95,19.1-29.46,5.42-11.06,9.51-22.83,12.3-34.97,2.72-11.97,4.16-24.28,4.28-36.65-1.57-.51-3.13-1.11-4.68-1.76-4.59-1.96-8.99-4.41-13.15-7.16-4.46-2.94-8.57-6.33-12.79-9.59-2.75-2.11-5.55-4.2-8.38-6.17-3.03-2.12-5.92-4.43-9.65-5.05-1.22-.21-2.45-.21-3.6.05.21.51.31,1.14.31,1.76,0,2.82-2.28,5.12-5.08,5.12-1.55,0-2.96-.73-3.91-1.85-.94,1.12-2.33,1.85-3.89,1.85-2.78,0-5.07-2.3-5.07-5.12,0-.63.12-1.25.31-1.76-1.13-.26-2.38-.26-3.62-.05-3.73.62-6.6,2.93-9.61,5.05-2.86,1.97-5.63,4.07-8.4,6.17-4.22,3.26-8.35,6.65-12.8,9.59-4.17,2.76-8.55,5.2-13.12,7.16-1.6.65-3.14,1.25-4.73,1.76.04.18.04.38.04.57h0c.14,12.2,1.59,24.31,4.28,36.09h0Z"/>
  <path class="cls-9" d="M50.61,115.63c1.16.69,3.23,1.29,5.43,1.53,1.31.17,2.68.23,3.82.08.87-.1,1.83-.29,2.57-.79,1.64-1.17-.32-2.76-1.47-3.55.85-.89,3.3-2.3,9.32.59,4.44,2.11,7.14,3.28,9.13,3.87,1.61.47,4.26.91,5.63-.22.32-.27.6-.76.69-1.1.16-.81-.36-1.94-1.22-2.21h-.03c.6-.69,1.31-1.33,2.23-1.69,1.38-.51,3.32-.45,6.25.99,1.81.89,3.2,1.69,4.37,2.35,3.14,1.8,4.94,2.83,8.55,2.27l.24-.06c.63-.3.98-.71,1.11-1.15.13-.35.08-.69-.05-.98-.12-.29-.32-.52-.58-.7-.34-.22-.8-.39-1.31-.45.04-.1.06-.21.12-.31.21-.44.6-.88,1.09-1.29.54-.4,1.22-.68,2-.86,1.22-.25,2.67-.07,4.33.74,2.71,1.36,4.96,2.38,6.71,3.04,1.86.7,3.24.97,4.12.79l.27-.08c.37-.27.61-.57.75-.86h0c.15-.44.11-.83-.07-1.24-.16-.3-.43-.59-.68-.81h0c-.32-.24-.69-.43-1.08-.56,2.87-2.61,8.62-.18,11.06,1.71-.18.34-.37.71-.55,1.08-2.24-1.54-4.22-2.38-5.8-2.24-1.39.3-1.89,1.9-1.46,2.65,1.04-.35,1.73.43.92,1.62-3.42.08-7.57-.1-10.49-1.66-2.85-1.57-7.56-4.36-7.47-.52,2.24-.18.23,2.89-1.47,3.48-5.15,1.03-7.56-.07-7.8-.13-4.51-1.42-5.83-3.34-9.37-5.14-1.99-.44-3.1.12-2.67,2.22.97-.5.87,2.89-3.87,3.42-2.45.25-6.57-.78-9.78-2.48-5.02-2.65-9.55-3.63-10.03-1.18.57.16,1.51,1.71-.08,2.48-4.19,1.98-9.9.71-11.92.13-.51-.9-.98-1.8-1.46-2.75h0Z"/>
  <path class="cls-10" d="M49.57,113.58c1.26.78,4.65,1.8,6.63,2.04,1.16.13,1.15.25,2.11.16-1.33-.61-3.05-2.22-3.58-2.98l-.21.39-.59-.63c-.78-.91-1.74-2.55-1.86-3.73l-.24.08v-.83c0-.43-.28-.7-.61-.97-.26-.26-.52-.49-.79-.89l-.34-.47.41-.4c.62-.62.78-1.21.88-1.67.05-.2.11-.39.17-.57-.74-1.15-.37-2.07.38-2.85.12-.14.26-.28.4-.38.83-2.42,1.27-3.64,1.29-4.59.06-.79-.26-1.51-.89-2.76h-.05c-.39-.17-.83-.34-1.27-.49.15.71-.16,1.07-.49,1.47-.25.29-.52.6-.33,1.59l.27,1.38-1.22-.66c-1.66-.96-1.86-1.78-2.22-3.38-.09-.46-.14-1.22-.28-1.59-.07-.25-1.55.37-1.75.42l.34-1.2c.94-3.25,5.96-1.33,8.28-2-.75-.03-1.33-.09-1.9-.15-.89-.09-1.68-.17-3.05-.09-.85.03-1.6.27-2.3.47h-.03c-1.04.3-2.01.6-3.05.3-.22-.05-.91-.37-1.02-.53,1.31-.21,3.91-1.34,5.32-2.21h0c.06-.05.14-.1.19-.14.89-.5,1.85-.4,3.08-.27.59.05,1.18.12,1.84.12.11-.4.23-.77.31-1.19-.67-.05-1.07.14-1.29.49l-.47-.23c-.18-.56-.63-.81-.98-.71-.09.03-.31.94-.35,1.1l-.76-.64c-.56-.47-.64-.6-.64-.6-.05.03-.09.13-.14.24-.08.18-.16.37-.34.54l-.69.81-.38-1c-1.11-2.75-1.11-.21-.83,1.11l.19.86-.89-.11c-1.53-.13-1.99-1.21-2.85-3.24-.01-.12-.06-.19-.26-.71l-.04-.05c-.18-.61.21-.85.72-1.14.32-.19.82-.48.9-1-.67-.58-1.33-1.38-1.9-2.55h0c-.65-1.43-1.15-3.4-1.22-6.13-.05-1.81.56-4.06,1.21-6.44.66-2.35,1.46-3.76,1.73-6.1.13-1.17.08-2.15-.36-2.72.41.05,1.31,1.65,1.49,2.59.32,1.61.47,2.4.3,5.28-.1,1.45-.17,3.06-.17,4.68h0c.05,1.55.53,3.07,1.39,4.26.73,1.04,1.79,1.86,3.11,2.29.69-.48.65-1.25.82-2.01l.85,1.01c.41.44.8.85,1.18,1.18,1.02.99,1.79,1.73,1.77,2.89,6.11,2.01,7.98,6.84,8.76,11.7l.18,1.11c.16,1.16.25,2.31.34,3.41.35,3.51.62,6.44,2.32,7.08.86.33,1.1.28,3.12.77.85.2,1.84.39,2.98.59l-26.1-58.57.08-.03c-1.3-.7-2.54-1.07-3.59-.57-1.11.55-.77,2.56-.41,4.9.2,1.15.41,2.37.49,3.54.17,4-1.09,7.71-8.82,8.08h-.1c.71,5.88,1.71,11.67,3.02,17.37,1.36,6.05,3.1,12,5.16,17.83,2.03,5.77,4.35,11.39,7.04,16.85.17.37.37.79.6,1.17h0Z"/>
  <path class="cls-1" d="M74.41,103.38c-.23-.04-.45-.08-.65-.11l-25.75-57.76c.15.08.28.17.44.27.16.12.36.26.55.37l25.42,57.24h0Z"/>
  <path class="cls-10" d="M80.03,104.17c-1.44-.21-2.82-.37-4.09-.56l-7.67-17.25c1.27-.86,2.56-1.6,3.89-2.23.74-.37,1.5-.66,2.26-.96-.25,2.5-.04,6.39,1.08,10.61.88,3.43,2.34,7.06,4.53,10.39h0Z"/>
  <path class="cls-10" d="M87.24,104.94c-1.87-.21-3.71-.39-5.46-.57-2.51-3.44-4.08-7.3-5.01-10.92-.3-1.03-.51-2.03-.68-3.01,1.18-.49,2.65-1.01,4.31-1.4l6.84,15.9h0Z"/>
  <path class="cls-1" d="M89.38,105.11c-.23-.01-.45-.05-.66-.05l-6.96-16.32c.19-.02.38-.05.58-.08l7.05,16.46h0Z"/>
  <path class="cls-10" d="M94.08,105.44c-1.08-.09-2.2-.16-3.23-.24l-7.18-16.74c2.59-.34,5.56-.33,8.8.3.56.08,1.11.21,1.64.36h-.36l.32,16.32h0Z"/>
  <path class="cls-1" d="M96.02,105.54c-.19,0-.43-.02-.63-.02l-.33-16.13c.45.12.94.27,1.38.43l-.76.02.34,15.71h0Z"/>
  <path class="cls-10" d="M104.93,105.81c-1.49-.03-2.98-.03-4.49-.09-1.02-.03-2.08-.06-3.11-.12l-.36-15.58c4.09,1.44,8.52,3.9,13.13,7.9l-5.17,7.9h0Z"/>
  <path class="cls-1" d="M107.21,105.81h-.74l4.61-7.01c.16.13.32.26.46.41l-4.33,6.6h0Z"/>
  <path class="cls-10" d="M117.33,105.32c-2.72.28-5.6.4-8.57.46l3.75-5.66c1.58,1.55,3.2,3.28,4.83,5.2h0Z"/>
  <path class="cls-10" d="M125.84,103.96c-2.01.52-4.23.89-6.59,1.17-2.06-6.64-2.42-9.93-2.63-12.11,3.11,2.58,5.68,5.35,7.55,8.1.65.93,1.22,1.91,1.67,2.84h0Z"/>
  <path class="cls-1" d="M127.45,96.53c-.43.66-.71,1.38-.79,2.11-.06.75.06,1.46.43,2.06.3.48.74.83,1.35,1.08l.51.18c.03-.25-.04-.54.08-.77.26-.49.53-.56.81-.43.25.16.41.37.27.81-.16.66-.97,1.47-2.49,1.92-.16.05-.33.08-.47.15-.74-2.19-.82-4.49-.4-7.08l.82-.9,20.58-22.2c-.08.37-.14.73-.23,1.07l-17.81,19.18c-.84.91-1.99,1.81-2.65,2.82h0Z"/>
  <path class="cls-10" d="M134.61,113.21c-.52-.35-2.48-1.48-3.22-1.81,2.01-1.49,3.69-3.57,4.88-5.76.63-1.15,1.08-2.33,1.17-3.39.1-1.2-.14-2.27-.99-3.1-.18-.16-.56-.38-.78-.55,1.22-.61,2.45-1.51,3.28-2.65,1.18-1.59,3.59-7.54,3.29-10.57-1.64,3.24-3.49,4.02-5.79,5.66-1.38,1.01-3.1,2-4.62,2.71l15.54-16.77c-.04.26-.1.49-.16.74-1.39,6.05-3.09,12-5.14,17.83-2.03,5.77-4.36,11.39-7.07,16.85-.14.26-.27.55-.39.81h0Z"/>
  <path class="cls-3" d="M70.97,112.05c4.38,2.1,6.99,3.26,8.88,3.79,1.64.48,2.72.46,4.03.18.19-.14.28-.5.1-.63-.1-.34-.75-.44-.94-.46l-1.26-.27.8-.99c.85-1.08,1.86-2.36,3.6-3.01,1.71-.65,4.05-.59,7.46,1.03,1.8.9,3.23,1.73,4.46,2.4,2.8,1.64,4.41,2.56,7.43,2.12.06-.03.1-.06.14-.07-.23-.15-.63-.23-1.12-.15l-.74.14-.12-.75c-.14-.62,0-1.3.3-1.96.32-.69.87-1.35,1.58-1.87.69-.55,1.59-.94,2.59-1.16,1.53-.28,3.34-.11,5.34.89,2.67,1.31,4.86,2.33,6.55,2.95,1.46.54,2.5.81,3.11.77-.04-.06-.1-.15-.22-.22h.02c-.33-.26-.82-.43-1.23-.47l-.61-.02-.13-.62c-.1-.51.06-1.01.43-1.47.74-.99,2.13-1.51,3.31-1.75"/>
  <path class="cls-1" d="M57.17,99.82c-.21.15-.42.28-.61.41.31.37.61.74.91,1.09.21-.16.41-.32.65-.5-.32-.31-.61-.62-.94-.99h0Z"/>
  <path class="cls-1" d="M58.91,98.65c-.23.16-.43.3-.65.46.31.31.58.61.89.9.2-.18.44-.36.65-.53-.28-.27-.58-.55-.89-.83h0Z"/>
  <path class="cls-1" d="M60.45,97.4c-.14.15-.32.3-.52.45.3.25.58.53.81.75.21-.15.38-.32.52-.48-.25-.21-.52-.45-.82-.72h0Z"/>
  <path class="cls-1" d="M57.06,96.85c-.23.13-.4.27-.61.39.27.3.58.61.89.91.21-.13.41-.28.61-.43-.28-.26-.58-.56-.85-.83,0,0,0-.04-.04-.04h0Z"/>
  <path class="cls-1" d="M58.67,95.66c-.2.14-.36.29-.52.41.28.29.56.57.85.85.17-.13.33-.28.51-.42-.3-.27-.58-.55-.84-.84h0Z"/>
  <path class="cls-1" d="M57.35,94.27c-.23.14-.44.28-.67.39.15.16.32.33.49.49.2-.13.39-.29.58-.46-.13-.13-.26-.27-.4-.42h0Z"/>
  <path class="cls-1" d="M62.54,100.26c.2-.24.39-.49.64-.74-.06-.18-.1-.38-.16-.57-.14-.03-.63-.02-.69-.05-.21.21-.42.4-.63.62.44.4.73.68.83.74h0Z"/>
  <path class="cls-1" d="M60.87,101.82c.27-.18.54-.41.82-.66-.27-.23-.58-.48-.95-.77-.22.18-.43.38-.68.56.32.38.61.7.81.88h0Z"/>
  <path class="cls-1" d="M58.8,102.96c.34-.14.65-.26.96-.44-.21-.18-.45-.46-.76-.74-.24.18-.49.38-.72.54.19.29.4.49.52.64h0Z"/>
  <path class="cls-1" d="M57.41,104.73c0,.16-.21.43-.13.48l1.04.43-.88.7s0,.28,0,.6c0,.02.03.03.03.06,1.05-.41,2.14-1.09,3.15-1.86,1.52-1.12,2.81-2.4,3.56-3.35-.19-.26-.37-.53-.52-.85-.85,1-1.63,1.74-2.52,2.32-1,.64-2.14,1.1-3.72,1.47h0Z"/>
  <path class="cls-1" d="M56.98,103.26c.05.05.12.14.14.19.11-.06.22-.06.32-.08-.06-.1-.13-.19-.21-.3-.11.06-.17.12-.25.18h0Z"/>
  <path class="cls-1" d="M55.28,101.25c.07.14.17.21.28.26h0c.28.21.54.38.61.73.08-.06.13-.08.19-.17-.28-.38-.63-.8-1-1.22-.12.05-.07.28-.09.4h0Z"/>
  <path class="cls-1" d="M55.73,99.2c.14-.11.32-.21.51-.31-.37-.37-.68-.71-.99-1.03-.17.08-.32.15-.47.2.3.36.62.76.95,1.14h0Z"/>
  <path class="cls-1" d="M51.82,105.85c.1.11.19.21.28.27.18.18.32.31.47.5,0-.03.05-.09.05-.15.1-.48.1-1,0-1.52-.05-.1-.08-.24-.13-.37-.14.39-.32.81-.67,1.27h0Z"/>
  <path class="cls-1" d="M53.03,103.04c.41.49.7,1.03.84,1.59.17.73.14,1.47.01,2.09-.12.66-.4,1.23-.66,1.58-.03.02-.06.05-.08.07l.25.25-.04.05-.08.09c-.27.26.41,1.38,1.1,2.26.49-.68.96-1.46.46-2.26l-.73-1.18,1.35.19c.54.06.67-.05.7-.2.03-.17-.04-.4-.06-.62,0-.34.19-.71.39-1.04-.21-.27-.56-.61-.52-.97.03-.4.45-1.07-.74-1.2l-.58-.21.14-.59c.13-.27.08-.31.05-.31h0c-.27-.19-.6-.4-.85-1.05l-.04-.31.14-1.07s-.08.05-.1.07c-.41.29-.83.58-1.13.91-.64.73.02,1.57.17,1.86h0Z"/>
  <path class="cls-1" d="M54.93,95.43c0,.11,0,.18-.02.26.17.15.37.35.6.58.17-.09.36-.23.59-.37-.25-.2-.47-.43-.68-.65-.17.08-.34.15-.5.18h0Z"/>
  <path class="cls-1" d="M62.1,91.2c-.12.04-.41.27-.5.29.09.09.43.52.61.47,0-.08-.11-.68-.11-.76h0Z"/>
  <path class="cls-1" d="M59.37,93.17c-.12-.1-.23-.2-.36-.31-.18.21-.37.43-.61.64.1.12.22.22.33.34.23-.22.47-.46.63-.67h0Z"/>
  <path class="cls-1" d="M61.13,94.87c-.27-.26-.55-.5-.83-.79-.17.23-.43.48-.67.71.28.27.54.58.83.86.27-.26.48-.53.67-.78h0Z"/>
  <path class="cls-1" d="M62.62,96.18c-.17-.14-.36-.26-.52-.41-.2.25-.44.5-.7.77.28.21.52.45.75.66.22-.28.4-.54.52-.78-.04-.06-.04-.14-.06-.23h0Z"/>
  <path class="cls-1" d="M56.03,92.8c-.28.17-.6.3-.98.33.18.16.39.36.63.59.25-.15.52-.27.8-.42-.17-.16-.3-.32-.45-.49h0Z"/>
  <path class="cls-1" d="M57.1,91.34c-.07.15-.16.3-.24.43.05.08.12.15.19.22.14.18.3.36.48.55.18-.17.39-.34.51-.55-.36-.29-.7-.53-.95-.65h0Z"/>
  <path class="cls-1" d="M57.79,90.26c1.15.63,2.56,2.07,3.77,3.22.32.3.62.59.91.85-.04-.38-.1-.74-.13-1.13-1.6-.34-1.99-1.43-2.17-1.89,0-.03.06.09.04.02l1.51-1.12c-.67-.41-3.12-.38-3.93.04h0Z"/>
  <path class="cls-1" d="M58.8,85.11c.61,1.19,1.18,2.21,1.64,3.52.34.03.86.06,1.25.3-.25-1.09-.56-2.24-1.01-3.25-.7-.05-1.31-.29-1.88-.57h0Z"/>
  <path class="cls-1" d="M56.91,82.71c.74.5,2.13,1.14,3.01,1.45-.45-.77-1.04-1.51-1.71-2.13-.25.37-.72.59-1.3.68h0Z"/>
  <path class="cls-1" d="M54.24,79.63c-.37.91-1.23,1.22-2.34,1.53.23.03.45.06.74.08h0c1.16.06,2.32.22,3.47.22,2.73-.03-1.33-1.63-1.87-1.83h0Z"/>
  <path class="cls-1" d="M44.32,62.82c-.24.85-.45,1.7-.67,2.52-.63,2.29-1.22,4.41-1.17,6.07.05,2.52.49,4.31,1.1,5.59h0c.43.93.99,1.6,1.49,2.07,1.16-.49,1.93-.43,2.65-.11h.02c-.83-1.26-.5-2.21.69-2.89-1.12-.56-2.02-1.35-2.72-2.33-1.05-1.42-1.57-3.19-1.62-5.01h0c-.02-1.73.06-3.33.16-4.76.05-.41.05-.79.08-1.15h0Z"/>
  <path class="cls-1" d="M47.3,80.26c-.56-.04-1.12.04-1.77.32-.21.89-.93,1.35-1.45,1.62.03.08.06.19.11.29.34.83.6,1.45.87,1.85-.03-.75.09-1.37.27-1.76.19-.35.43-.56.74-.66.34-.13.67-.1,1,.08.32.14.63.42.91.84.38-.4.91-.51,1.82.1.12-.12.31-.2.49-.26.26-.07.52-.07.78,0,.27.04.47.17.69.32.2.14.36.32.49.51.29-.18.59-.3.85-.37.27-.07.56-.08.77,0,.34.09.58.28.71.62.05.05.05.1.07.16.91-.08,1.31.38,1.51,1h0c.09.3.1.58.13.88.05.68.49.65.56,1.31.09.85-.72,1.46-1.42,1.8-2.72,1.43-7.08-.29-8.04.84.45-.04.98.15.95.72.18.47.19,1.2.32,1.7.17.74.29,1.24.6,1.67.1-.53.37-.87.61-1.16.19-.21.35-.38-.12-1.16l-.61-1c2.07.03,3.37.9,5.18,1.18,1.01.31,1.42-.58,1.86-1.49.36-1.13,1.84-1.57,2.87-1.59-.39-1.21-1.62-3.62-2.3-4.32-1-1.11-2.76-1.68-4.19-1.75h0c-2.15-.12-3.33-.96-4.3-1.7-.33-.23-.64-.45-.97-.59h0Z"/>
  <path class="cls-1" d="M50.96,80.26c.74,0,1.11-.52,1.09-1.08,0-.58-.56-.99-1.14-.99-.56-.01-1.09.33-1.16.92-.06.55.45,1.15,1.21,1.15h0Z"/>
  <path class="cls-1" d="M49.23,76.94c-.78.44-1.13,1.58-.29,2.28-.15-1.35,1.07-1.93,1.89-1.93,1.09-.02,2.32.9,2.12,2.13,1.12-1.23-1.01-2.9-1.73-3.59-.39.46-1.4.83-1.99,1.11h0Z"/>
  <path class="cls-1" d="M54.95,85.45c0-.07-.02-.11-.02-.15h0c-.03-.08-.21-.13-.72.07l-.65.21c.44-.02.9-.06,1.4-.14h0Z"/>
  <path class="cls-1" d="M55.45,87.2c-.24-.23-.36-.52-.39-.85-1.55.26-2.81.15-3.9.04-1.07-.14-1.92-.21-2.55.15-.05.02-.08.05-.18.1h0c-.19.13-.46.3-.81.52.43-.13.91-.2,1.38-.22,1.45-.08,2.28,0,3.2.09.83.11,1.72.19,3.25.16h0Z"/>
  <path class="cls-1" d="M118.76,107.58c.9-.09,1.72-.17,2.46-.25,5.52-.56,8.76-2.28,10.14-3.87.44-.56,1.02-2.12.07-2.7.19.31.16.93.1,1.15-.28,1.13-1.3,2.44-3.48,3.08-2.66.82-5.82,1.41-9.33,1.77l.05.82h0Z"/>
  <path class="cls-1" d="M116.85,107.74c.16,0,.34-.02.48-.03l-.05-.8c-.16.03-.28.03-.44.05v.78h0Z"/>
  <path class="cls-1" d="M103.76,108.43c4.41-.06,8.36-.3,11.66-.55v-.81c-3.71.27-7.67.34-11.66.29v1.06h0Z"/>
  <path class="cls-1" d="M101.82,108.45h.5l-.03-1.09c-.16-.03-.33-.03-.5-.03l.03,1.12h0Z"/>
  <path class="cls-1" d="M91,108.03c2.21.18,4.38.28,6.46.36,1.02,0,1.95.04,2.92.07l-.03-1.18c-3.18-.06-6.34-.25-9.41-.47l.06,1.22h0Z"/>
  <path class="cls-1" d="M88.99,107.86c.19.02.37.03.56.03l-.06-1.2c-.16,0-.34-.04-.52-.05l.02,1.21h0Z"/>
  <path class="cls-1" d="M81.9,106.97c1.9.3,3.8.53,5.65.74v-1.18c-2.01-.17-3.91-.36-5.73-.58l.08,1.02h0Z"/>
  <path class="cls-1" d="M79.94,106.64c.16.05.3.06.46.07l-.03-.94c-.17-.02-.34-.06-.49-.06l.06.93h0Z"/>
  <path class="cls-1" d="M55.86,111.16c-.1.18-.21.32-.32.49.45.77,1.13,1.54,1.93,2.17.97.81,2.08,1.45,3.13,1.73,1.33-.37-1.45-1.89-1.76-2.05-1.14-.6-2.15-1.36-2.98-2.35h0Z"/>
  <path class="cls-1" d="M65.79,104.73c-1.15,1.49-2.61,2.91-4.35,4.03-1.27.84-2.7,1.51-4.24,1.95.65.65,1.41,1.21,2.28,1.58.87-1.24,3.86-3.87,11.48-.25,4.38,2.1,6.99,3.26,8.88,3.79.34.11,4.74,1.02,4.09-.4-.04-.1-.1-.18-.27-.28h0c-.48-.31-1.31-.38-1.89-.5,1.26-1.58,2.43-3.26,4.41-4,1.71-.65,4.05-.59,7.46,1.03,1.8.9,3.23,1.73,4.46,2.4,2.8,1.64,4.28,2.44,7.14,2.32,1.18-.64-1.02-.72-1.43-.29l-.12-.75c-.14-.62,0-1.3.3-1.96.32-.69.87-1.35,1.58-1.87,2.34-1.75,5.4-1.54,7.92-.27,2.67,1.31,4.86,2.33,6.55,2.95,1.46.54,2.5.81,3.11.77-.04-.06-.1-.15-.22-.22h.02c-.58-.45-1.18-.45-1.84-.49-.72-2.24,1.54-3.42,3.62-3.84,1.32-.26,3.01-.25,4.86.27l-.04-.03c1.54-.71,3.97-3.23,5.36-5.8.5-.98.88-1.95.96-2.8.07-.73-.12-1.74-.6-2.3-.43-.52-1.57-1.84-3.75-1.76.19-.26,1.18-.27,1.61-.26,2.04.04,3.4-1.21,4.55-2.76,1.09-1.49,1.99-3.4,2.47-5.05-.79.78-1.87,1.61-2.8,2.29-2.42,1.75-5.1,3.14-6.84,3.74-.8.3-1.51,1.05-1.81,1.41-.47.65-.85,1.99-.2,2.62.96-1.3,3.27-1.2,4.36.45.99,1.46.27,3.26-.37,3.98-1.62,1.84-5.14,3.85-11.15,4.46-4.87.5-13.57,1.34-23.95,1.03-9.68-.29-20.81-1.59-31.63-5.21h0Z"/>
  <path class="cls-1" d="M63.89,104.05c-.71.72-1.6,1.47-2.51,2.18-1.3.99-2.77,1.82-4.18,2.24-.17.3-.43.51-.9.61.05.17.06.33.06.48,1.58-.38,3.09-1.04,4.37-1.9,1.44-.95,2.7-2.13,3.75-3.39-.22-.05-.41-.15-.59-.21h0Z"/>
  <path class="cls-1" d="M65.14,102.66s-.08.08-.13.14c4.46,1.56,8.98,2.74,13.46,3.58l-.03-.86c-3.64-.47-6.7-.99-8.95-1.47-1.51-.32-2.96-.91-4.35-1.39h0Z"/>
  <path class="cls-5" d="M93.37,50.96c.87-4.31,2.65-8.84,5.04-13.14,2.56-4.69,5.82-9.09,9.33-12.73-10.59-2.38-21.17-2.78-31.08-1.19-9.28,1.49-17.98,4.77-25.55,9.83,7.91-.01,15.45,1.75,22.12,4.41,8.67,3.45,15.79,8.41,20.14,12.83h0Z"/>
  <path class="cls-9" d="M130.93,120.15c-8.06,1.68-15.49.45-17.74-1.62-7.83,5.07-17.19,2.54-21.96.32-.69.49-1.95,1.37-2.87,1.69-9,2.83-15.75-2.17-20.44-2.24,1.68,3.77-9.67,4.27-13.93,3.5.45.75.91,1.51,1.37,2.28,4.51.34,12.33.43,14.57-3.31,8.82,3.07,14.9,3.37,21.3.49,7.39,2.46,13.68,3.25,21.87-.65,5.17,3.14,11.88,2.25,16.63,1.64.4-.7.82-1.39,1.21-2.09h0Z"/>
  <path class="cls-10" d="M32.99,52.68c-.24-3.41-.39-6.83-.46-10.24,2.15-.75,4.28-1.61,6.36-2.6-.84,1.58-.52,4.05-.19,6.53.29,2.05.58,4.12.16,5.47-.46,1.44-1.88,2.07-5.5.93l-.37-.1h0Z"/>
  <path class="cls-10" d="M42.34,38.09c.28-.16.56-.31.83-.48,1.71-.92,3.37-1.89,4.98-2.92l.07.25c.31.37.96.95,1.74,1.61,1.39,1.17,3.22,2.7,4.17,4.16h0c.78,1.14.95,2.23-.19,3h0c-1.56,1.05-3.5-.59-5.58-2.28-1.89-1.58-3.89-3.24-6.03-3.33h0Z"/>
  <path class="cls-10" d="M55.33,29.67c1.39-1.05,2.78-2.14,4.15-3.2,4.17-3.28,8.38-6.43,12.69-9.49l.12,6.43c-5.98,1.34-11.68,3.42-16.96,6.26h0Z"/>
  <path class="cls-1" d="M73.46,16.07c.14-.07.27-.16.43-.25v7.26c-.11,0-.21.04-.29.07l-.14-7.07h0Z"/>
  <path class="cls-10" d="M75.16,15.02c1.33-.81,2.72-1.48,4.25-1.81v8.98c-.96.13-1.97.27-2.94.43-.45.08-.87.13-1.31.22v-7.82h0Z"/>
  <path class="cls-1" d="M80.7,13c.16,0,.28,0,.43,0v9.02c-.15,0-.28.01-.43.03v-9.04h0Z"/>
  <path class="cls-10" d="M82.42,17.19c.28.41.56.77.89,1.11h0c.63.63,1.36,1.14,2.21,1.49,1.63.68,3.5.68,5.15,0,.49-.19.9-.45,1.31-.72.43.27.87.53,1.31.72.23.09.47.18.67.24l.05,1.75c-3.93-.23-7.8-.2-11.6.11v-4.7h0Z"/>
  <path class="cls-1" d="M95.28,20.28c.1,0,.23.03.37.03l.03,1.59c-.14,0-.24,0-.37-.02l-.03-1.6h0Z"/>
  <path class="cls-10" d="M96.95,20.23c.52-.06,1.04-.25,1.53-.44.82-.35,1.58-.86,2.21-1.49h0c.62-.65,1.13-1.39,1.47-2.23.4-.95.62-2.05.49-3.08.47,0,.92.02,1.38.1,2.35.38,4.41,1.58,6.4,2.94,4.81,3.29,9.48,6.83,14.07,10.43,5.23,4.06,10.49,7.97,16.31,11.15,2.64,1.47,5.39,2.78,8.2,3.89l-7.08,9.74c-5.41-4.97-11.63-9.24-18.3-12.5-6.49-3.17-13.09-5.45-20.15-6.55,1.86-2.55,3.89-4.94,5.99-7.04l.84-.84-1.15-.26c-4.07-.98-8.16-1.66-12.21-2.04l-.03-1.8h0Z"/>
  <path class="cls-1" d="M150.26,42.01c.21.05.38.14.54.2l-17.97,25.18c-.19-.1-.35-.26-.55-.36l10.19-14.3.85-.2-.42-.4,7.36-10.12h0Z"/>
  <path class="cls-10" d="M151.46,43.6c-.16,5.41-.52,10.79-1.13,16.14-.46,3.79-1.02,7.55-1.72,11.28l-21.34,23.06c.35-1.39.85-2.84,1.4-4.24,3.13-7.71,8.64-14.72,10.79-16.24l.65-.46-.6-.56c-1.54-1.42-3.42-2.9-5.61-4.43l17.55-24.54h0Z"/>
  <path class="cls-9" d="M127.18,126.46c-.31.47-.63.92-.96,1.4-.07.14-.17.29-.25.45-3.47.12-6.76.68-13.7-1.14-3.07,1.68-14.32,4.09-20.75,1.18-6.34,3.18-16.94,1.54-20.02-.89-4.96,2.63-8.88,2.25-12.6,2.15-.38-.58-.76-1.17-1.16-1.75h0c4.26-.17,8.89.01,13.64-2.42,10.18,4.77,15.58,2.12,20.09.74,3.93,1.19,10.29,3.47,21.17-1.15,7.14,2.14,10.75,1.57,14.56,1.43h0Z"/>
  <path class="cls-9" d="M112.25,145.99c-.42.47-.85.96-1.34,1.43-5.66-2.33-16.84-1.63-18.75-.47-2.13-1.02-11.17-2-18.36,1.24-.49-.51-.94-1.02-1.42-1.51,4.96-2.77,16.72-3.68,19.75-1.58,2.58-2.25,16.82-1.57,20.13.89h0Z"/>
  <path class="cls-9" d="M107.21,151.24c-.47.46-.94.93-1.44,1.39-3.47-1.28-9.76-1.27-13.52-.07-4.55-.79-8.89-.94-13.33.72-.5-.48-1.03-.98-1.55-1.49,6.33-2.2,11.82-1.68,14.89-.76,2.73-.94,8.31-1.5,14.96.2h0Z"/>
  <path class="cls-9" d="M101.66,156.42c-.87.76-1.77,1.54-2.68,2.29-1.48-.69-5.55-1.65-6.99-.12-2.19-1.43-5.62-.62-6.9.16-.83-.69-1.67-1.4-2.47-2.11,2.3-1.09,5.54-2.08,9.43-.37,3.81-1.71,7.25-.73,9.61.15h0Z"/>
  <path class="cls-1" d="M52.76,35.07c-.84-.03-1.68-.03-2.52,0,.18.13.36.3.58.47,1.43,1.23,3.33,2.84,4.41,4.49h0c1.13,1.73,1.37,3.45-.58,4.76h0c-2.34,1.6-4.66-.32-7.12-2.35-2.21-1.81-4.52-3.74-6.75-2.74-1.56.71-1.18,3.6-.8,6.54.31,2.18.6,4.38.1,6.02-.61,2.01-2.6,3.28-6.9,1.96.17,1.57.34,3.33.49,4.92,6.49-.09,7.83-3.6,7.67-6.78-.05-1.16-.22-2.32-.43-3.43-.45-2.86-.88-5.29,1.11-6.28,2.3-1.09,4.69.44,7.11,2.02,2.52,1.62,5.08,3.26,7.13,1.4,2.37-2.12.72-4.29-.94-6.48-1.03-1.35-2.24-3.08-2.56-4.53h0Z"/>
  <path class="cls-10" d="M67.23,57.06l-8.72-21.53c-1.42-.18-2.85-.34-4.3-.4.24,1.17,1.18,2.42,2.14,3.66,2.03,2.68,4.03,5.35.77,8.26-2,1.83-4.09,1.35-6.18.24l8.31,18.67c1.1-1.99,2.28-3.53,3.69-5.13,1.32-1.44,2.77-2.71,4.3-3.77h0Z"/>
  <path class="cls-1" d="M68.93,55.97l-8.1-20.06c-.28-.06-.56-.1-.84-.14l8.36,20.55c.17-.13.38-.23.58-.35h0Z"/>
  <path class="cls-4" d="M77.63,41.51c-1.14,1.46-2.19,3.17-3.18,5.3-.99,2.08-2.08,4.78-2.98,7.72.78-.31,1.6-.6,2.43-.87,5.25-1.87,11.2-2.3,17.33-1.76.45.03.92.08,1.39.13-3.43-3.47-8.62-7.36-15-10.53h0Z"/>
  <path class="cls-10" d="M70.01,55.17c1.05-3.57,2.11-6.49,3.23-8.9,1.04-2.21,2.06-3.84,3.23-5.31-1.24-.56-2.45-1.11-3.71-1.59-3.28-1.3-6.79-2.4-10.42-3.18l7.67,18.98h0Z"/>
  <path class="cls-8" d="M117.34,60.46c-1.31-.59-2.57-1.11-3.84-1.63-6.16-2.45-12.76-4.35-19.23-5.26l-.03.22-.25-.28c-.96-.14-1.91-.22-2.88-.31-10.59-.93-20.53,1.15-27.23,8.52-1.49,1.65-2.84,3.57-3.98,5.78l5.32,11.96c.77,1.76,1.65,3.6,2.61,5.6,1.24-.8,2.48-1.5,3.78-2.13,9.99-4.76,21.15-3.7,30.97.24,9.77,3.93,18.19,10.64,22.66,17.21-.2-3.5.76-7.36,2.24-11.07,2.95-7.23,8-13.99,10.59-16.29-3.64-3.23-9.12-6.86-15.59-10.12-1.66-.86-3.38-1.68-5.14-2.44h0Z"/>
  <path class="cls-10" d="M125.41,62.94c2.04,1.1,3.98,2.24,5.77,3.38l9.26-12.95c-4.55,1.73-9.48,5.41-13.2,8.19-.65.49-1.27.96-1.83,1.38h0Z"/>
  <path class="cls-6" d="M102.63,33.45c-1.1,1.63-2.15,3.29-3.09,4.98-1.06,1.96-2.02,3.95-2.8,5.93-.9,2.37-1.62,4.92-2.26,7.91,8.64,1.22,17.51,4.22,25.29,7.85,1.48.63,2.98,1.28,4.52,1.99.65-.44,1.38-1.01,2.17-1.61,3.97-2.96,9.32-6.97,14.24-8.6-5.19-4.75-11.19-8.81-17.63-11.97-6.46-3.17-13.41-5.41-20.44-6.48h0Z"/>
  <path class="cls-7" d="M75.77,82.69c-.24,1.48-.24,3.77.12,6.42,3.69-1.48,9.6-3.02,16.82-1.63,7.23,1.37,15.73,5.67,24.62,15.86-1.6-5.7-1.86-8.55-2.02-10.53-.05-.35-.07-.68-.08-.91-3.82-2.95-8.3-5.6-13.11-7.52-8.35-3.33-17.69-4.56-26.34-1.7h0Z"/>
  <path class="cls-1" d="M101.09,137.08c-.18.33-.38.87-.53,1.43-.14.58-.3.99-.38,1.14-.11.3-.28.46-.43.46l-1.46.05c-.16,0-.36-.08-.54-.18-.15-.16-.2-.41-.23-.71l-.08-4.25c-.01-.49.14-.9.39-1.16.34-.32.8-.5,1.47-.51l4.44-.08c.65-.04,1.15.13,1.51.45.28.23.45.63.46,1.13l.12,5.14-2.24.06-.08-5.02c-.03-.18-.11-.36-.22-.44-.1-.13-.35-.19-.63-.19l-2.21.06c-.27,0-.54.06-.65.21-.08.06-.12.28-.12.42l.08,3.62c.11-.4.26-.83.34-1.15.16-.49.37-.93.47-1.22.28-.71.72-1.05,1.27-1.1.33,0,.61.12.82.31.22.21.35.48.35.77,0,.3-.12.6-.3.77-.21.18-.5.34-.83.34-.17,0-.29-.01-.49-.1-.08-.06-.22-.17-.28-.25h0Z"/>
  <path class="cls-1" d="M94.12,133.46c.64-.02,1.15.15,1.46.46.31.23.49.66.49,1.12l.11,5.16-2.23.05-.12-5.03c0-.21-.08-.38-.16-.46-.14-.1-.39-.18-.67-.18l-1.97.05c-.54.03-.82.19-.82.45v.21h.82s.01.47.01.47c-.25,0-.46.12-.55.16-.06.13-.13.34-.13.55l.06,3.88h-2.22s-.07-3.45-.07-3.45c0-.18.03-.38.07-.54.07-.18.23-.35.48-.47l-.8.03v-.63c-.01-.52.14-.95.39-1.2.34-.34.81-.51,1.49-.54l4.35-.09h0Z"/>
  <path class="cls-1" d="M81.67,137.19c.32.06.75.36,1.25.82.52.48,1.11.98,1.66,1.48l-.14-5.82,2.2-.04.14,6.04c0,.24-.08.48-.22.61-.13.06-.35.11-.52.13h-1.14c-.29.01-.63-.17-1.07-.51-.36-.32-.77-.72-1.11-1.08-.43-.43-.78-.7-1.04-.78l.03,1.49c.02.33-.11.61-.36.77-.16.12-.47.21-.74.22l-.93.02c-.56.02-1-.08-1.31-.27-.33-.31-.56-.82-.56-1.46-.03-.5.14-.96.38-1.24.32-.37.71-.59,1.22-.59v-1.03s-.21.06-.21.06c-.36,0-.73-.12-.95-.27-.27-.19-.4-.48-.4-.81-.01-.29.1-.6.35-.82.25-.22.56-.34.91-.35h.99c.47-.01.83.07,1.1.34.25.23.43.6.43,1l.05,2.07Z"/>
  <path class="cls-2" d="M101.44,136.33c0,.13.06.26.08.35.1.06.22.12.32.12s.23-.08.28-.16c.08-.08.19-.2.19-.29-.03-.11-.06-.23-.16-.31-.09-.08-.21-.13-.34-.13-.08,0-.19.05-.26.13-.11.11-.14.27-.14.34v-.05h0Z"/>
  <path class="cls-2" d="M78.63,138.85c0,.39.12.73.28.82.12.05.31.07.58.07l-.05-1.93c-.21,0-.4.08-.52.19-.17.17-.3.49-.28.86v-.02h0Z"/>
  <path class="cls-2" d="M78.79,134.94c.03.16.1.28.16.35.12.09.27.13.43.13.19,0,.33-.06.43-.14.13-.08.18-.21.18-.38,0-.11-.08-.25-.15-.33-.15-.07-.3-.13-.47-.13s-.31.04-.42.13c-.08.08-.16.25-.16.37h0Z"/>
  <path class="cls-2" d="M90.81,171.7c-21.01-14.48-37.02-34.07-47.91-56.29-11.53-23.51-17.3-49.99-17.2-76.6v-1.52l1.48-.38c4.08-1.05,8.26-2.87,12.13-4.95,5.25-2.81,9.9-6.1,13.15-8.64,4.85-3.87,8.01-6.28,10.62-8.21,3.86-2.86,8.9-7.07,13.55-8.36,4.78-1.35,10.59-1.08,13.54,2.35,1.17,1.34,1.8,2.43,1.8,4.36,0,2.15-1.75,3.95-3.89,3.95s-3.89-1.8-3.89-3.95c0-1.03.4-1.98,1.05-2.7-3.8-1.66-8.82-.23-12.07,2.01-2.85,1.99-5.03,3.47-7.8,5.52-2.76,2.02-5.9,4.44-10.53,8.11-3.41,2.66-8.3,6.09-13.73,9.02-3.64,1.98-7.58,3.72-11.51,4.89.12,25.51,5.74,50.85,16.74,73.35,10.4,21.24,25.75,40.05,45.61,54.06,19.91-14,35.24-32.82,45.63-54.06,11.02-22.5,16.65-47.84,16.77-73.35-3.92-1.17-7.87-2.9-11.53-4.89-5.45-2.93-10.34-6.36-13.7-9.02-4.67-3.67-7.78-6.09-10.56-8.11-2.76-2.05-4.9-3.53-7.78-5.52-3.25-2.24-8.24-3.67-12.05-2.01.66.72,1.04,1.67,1.04,2.7,0,2.15-1.75,3.95-3.9,3.95s-3.89-1.8-3.89-3.95c0-1.93.62-3.02,1.79-4.36,2.96-3.44,8.79-3.71,13.55-2.35,4.65,1.29,9.68,5.5,13.56,8.36,2.61,1.92,5.78,4.33,10.64,8.21,3.23,2.54,7.91,5.83,13.14,8.64,3.87,2.08,8.04,3.89,12.12,4.95l1.48.38v1.52c.1,26.61-5.66,53.1-17.2,76.6-10.86,22.22-26.9,41.81-47.94,56.29l-1.17.8-1.16-.8Z"/>
</svg>